<svg version="1.1" id="Layer_1" xmlns="http://www.w3.org/2000/svg" xmlns:xlink="http://www.w3.org/1999/xlink" x="0px" y="0px"
	 width="100%" viewBox="0 0 512 512" enable-background="new 0 0 512 512" xml:space="preserve">
<path fill="#000000" opacity="1.000000" stroke="none" 
	d="
M513.000000,174.000000 
	C513.000000,287.305786 513.000000,400.111572 513.000000,512.958679 
	C342.402527,512.958679 171.805069,512.958679 1.103796,512.958679 
	C1.103796,342.444244 1.103796,171.888397 1.103796,1.166280 
	C171.666534,1.166280 342.333252,1.166280 513.000000,1.166280 
	C513.000000,58.528233 513.000000,116.014114 513.000000,174.000000 
M219.400620,494.815521 
	C231.935043,495.487946 244.469482,496.160400 257.931000,496.974976 
	C271.405334,497.420074 284.777161,496.557709 298.820740,493.975342 
	C303.545990,492.982147 308.374359,492.327606 312.975372,490.926422 
	C323.059814,487.855377 333.029022,484.405975 343.825470,481.008179 
	C349.646210,478.657318 355.726410,476.791809 361.230621,473.848938 
	C371.017517,468.616333 380.455505,462.731140 390.754944,457.018646 
	C392.346893,455.959991 394.070557,455.054718 395.510040,453.818512 
	C407.382751,443.622467 419.202728,433.365051 431.690247,422.798706 
	C437.932617,415.227631 444.716949,408.031647 450.281616,399.991547 
	C457.406219,389.697571 463.548492,378.723755 470.752594,367.723999 
	C473.812744,360.956390 477.117798,354.287354 479.889282,347.403503 
	C490.090057,322.066620 496.649323,295.830872 496.857544,268.423523 
	C496.979004,252.436096 496.586151,236.329010 494.734589,220.473114 
	C492.654175,202.657639 487.428925,185.377182 480.798584,168.668594 
	C478.095154,161.855881 474.326508,155.465897 471.006226,148.245941 
	C470.949036,147.826279 470.891846,147.406616 470.905762,146.455109 
	C470.616211,146.262589 470.326691,146.070068 469.995972,145.154724 
	C467.345520,140.549332 465.022766,135.713364 461.977753,131.385559 
	C455.214264,121.772766 448.088837,112.414619 440.838959,102.316093 
	C431.610138,92.888664 422.594421,83.238045 413.058868,74.131821 
	C408.567108,69.842354 403.076843,66.598503 397.776398,62.250458 
	C383.864136,52.093525 369.397003,42.916225 352.771149,36.290455 
	C337.008972,29.655088 320.837433,24.339750 303.172577,21.015858 
	C288.261017,18.034664 273.247711,16.247379 257.076416,17.018185 
	C247.565063,17.346748 238.030472,17.377653 228.551178,18.117088 
	C222.990173,18.550877 217.517166,20.112661 211.172348,21.019335 
	C197.434937,24.973642 183.697540,28.927952 169.212280,32.994377 
	C160.545364,36.984909 151.719070,40.669182 143.264877,45.068527 
	C137.144073,48.253632 131.516876,52.387321 124.896584,56.056080 
	C110.274193,65.453041 96.833794,76.287369 84.278542,89.212723 
	C76.901779,97.982796 69.161430,106.478577 62.269348,115.614304 
	C57.233120,122.290016 53.313133,129.807831 48.272266,137.270111 
	C42.970322,148.580063 37.262386,159.720490 32.454311,171.236649 
	C23.541016,192.585510 18.474380,215.081451 17.263077,238.048157 
	C16.039906,261.239899 16.571939,284.477570 21.830107,307.463379 
	C28.050976,334.657593 37.744328,360.269470 52.980099,384.426544 
	C65.320374,403.627197 78.998886,421.689331 97.220078,436.728363 
	C110.762993,449.142731 125.755882,459.490753 142.287598,468.746063 
	C142.877548,469.020081 143.457260,469.319183 144.058914,469.564514 
	C157.371185,474.992249 170.685883,480.414032 184.695709,486.177704 
	C196.115204,488.822876 207.534698,491.468079 219.400620,494.815521 
z"/>
<path fill="#8200FF" opacity="1.000000" stroke="none" 
	d="
M52.628540,383.882629 
	C37.744328,360.269470 28.050976,334.657593 21.830107,307.463379 
	C16.571939,284.477570 16.039906,261.239899 17.263077,238.048157 
	C18.474380,215.081451 23.541016,192.585510 32.454311,171.236649 
	C37.262386,159.720490 42.970322,148.580063 48.844761,137.439163 
	C49.611706,141.377808 49.773964,145.149384 50.008499,148.916489 
	C50.324203,153.987274 50.695621,159.054581 51.015480,164.493698 
	C49.949535,167.405777 48.933098,169.956726 47.869564,172.487885 
	C37.085567,198.153366 31.879135,225.042709 31.149664,252.740845 
	C30.882423,262.888062 31.670574,273.178101 33.160038,283.227722 
	C35.058144,296.034424 37.327930,308.906342 40.965393,321.301788 
	C44.731209,334.134674 50.325375,346.431061 54.855930,359.287842 
	C54.394749,362.695343 54.245296,365.781036 53.989281,368.857910 
	C53.572315,373.869202 53.085739,378.874695 52.628540,383.882629 
z"/>
<path fill="#DE00FF" opacity="1.000000" stroke="none" 
	d="
M471.042480,148.883575 
	C474.326508,155.465897 478.095154,161.855881 480.798584,168.668594 
	C487.428925,185.377182 492.654175,202.657639 494.734589,220.473114 
	C496.586151,236.329010 496.979004,252.436096 496.857544,268.423523 
	C496.649323,295.830872 490.090057,322.066620 479.889282,347.403503 
	C477.117798,354.287354 473.812744,360.956390 470.041260,367.847229 
	C468.220673,365.861298 466.467957,363.849365 466.131775,361.623444 
	C465.351562,356.457458 465.255402,351.188141 464.936340,345.575134 
	C468.851471,333.068878 473.077728,321.049805 476.480408,308.801941 
	C480.729736,293.506409 482.358032,277.737274 482.908234,261.909302 
	C483.130676,255.511078 482.722656,249.028259 481.919250,242.670151 
	C480.269348,229.612457 478.583221,216.531067 476.090210,203.618088 
	C474.416748,194.950012 471.331726,186.554459 469.225037,177.926651 
	C469.825226,176.675690 470.263214,175.541382 470.302521,174.393448 
	C470.593719,165.891678 470.805634,157.387207 471.042480,148.883575 
z"/>
<path fill="#8B00FF" opacity="1.000000" stroke="none" 
	d="
M52.804317,384.154602 
	C53.085739,378.874695 53.572315,373.869202 53.989281,368.857910 
	C54.245296,365.781036 54.394749,362.695343 55.165745,359.451385 
	C59.868690,366.402618 63.352390,374.001892 68.263092,380.527222 
	C78.137032,393.647614 88.788971,406.182495 98.856392,419.283936 
	C98.046432,425.110443 97.499962,430.611969 96.953491,436.113495 
	C78.998886,421.689331 65.320374,403.627197 52.804317,384.154602 
z"/>
<path fill="#D700FF" opacity="1.000000" stroke="none" 
	d="
M464.881958,345.960724 
	C465.255402,351.188141 465.351562,356.457458 466.131775,361.623444 
	C466.467957,363.849365 468.220673,365.861298 469.721985,368.006683 
	C463.548492,378.723755 457.406219,389.697571 450.281616,399.991547 
	C444.716949,408.031647 437.932617,415.227631 431.354858,422.486694 
	C431.012604,420.367676 431.192749,418.536499 430.962402,416.758484 
	C430.364960,412.146576 429.586823,407.558075 429.018250,402.647491 
	C434.761047,394.958771 440.963318,387.953430 445.828369,380.117828 
	C452.697876,369.053925 458.578522,357.376099 464.881958,345.960724 
z"/>
<path fill="#8B00FF" opacity="1.000000" stroke="none" 
	d="
M51.043129,164.123383 
	C50.695621,159.054581 50.324203,153.987274 50.008499,148.916489 
	C49.773964,145.149384 49.611706,141.377808 49.156418,137.279251 
	C53.313133,129.807831 57.233120,122.290016 62.269348,115.614304 
	C69.161430,106.478577 76.901779,97.982796 84.836655,89.372498 
	C85.395561,90.814774 85.351059,92.099190 85.405098,93.379440 
	C85.625450,98.600403 85.875938,103.820099 85.974609,109.357849 
	C80.864594,116.249275 75.386787,122.505791 71.041588,129.469070 
	C63.985252,140.777039 57.670765,152.547913 51.043129,164.123383 
z"/>
<path fill="#D700FF" opacity="1.000000" stroke="none" 
	d="
M471.024353,148.564758 
	C470.805634,157.387207 470.593719,165.891678 470.302521,174.393448 
	C470.263214,175.541382 469.825226,176.675690 468.898743,177.760269 
	C462.848450,163.580521 456.526367,149.938370 448.042725,137.359024 
	C444.202759,131.665222 440.592804,125.816315 437.238037,119.923004 
	C438.398041,117.242935 439.410309,114.720703 439.943146,112.100967 
	C440.554260,109.096657 440.740234,106.005882 441.110931,102.952667 
	C448.088837,112.414619 455.214264,121.772766 461.977753,131.385559 
	C465.022766,135.713364 467.345520,140.549332 470.117188,145.723114 
	C470.392883,146.561234 470.591644,146.793060 470.834656,146.986954 
	C470.891846,147.406616 470.949036,147.826279 471.024353,148.564758 
z"/>
<path fill="#D100FF" opacity="1.000000" stroke="none" 
	d="
M440.974945,102.634384 
	C440.740234,106.005882 440.554260,109.096657 439.943146,112.100967 
	C439.410309,114.720703 438.398041,117.242935 436.924774,119.793121 
	C433.988556,117.188789 431.531342,114.742775 429.494965,111.985893 
	C420.069336,99.225174 408.023773,89.165710 396.122437,78.727036 
	C396.871368,73.185806 397.455200,68.033333 398.039001,62.880859 
	C403.076843,66.598503 408.567108,69.842354 413.058868,74.131821 
	C422.594421,83.238045 431.610138,92.888664 440.974945,102.634384 
z"/>
<path fill="#CE00FF" opacity="1.000000" stroke="none" 
	d="
M428.880798,402.960236 
	C429.586823,407.558075 430.364960,412.146576 430.962402,416.758484 
	C431.192749,418.536499 431.012604,420.367676 431.029114,422.650452 
	C419.202728,433.365051 407.382751,443.622467 395.510040,453.818512 
	C394.070557,455.054718 392.346893,455.959991 390.317627,456.652893 
	C389.240479,451.151520 388.600647,446.015839 388.110931,440.571045 
	C393.335938,436.239441 398.715546,432.541412 403.419739,428.124115 
	C412.115631,419.958588 420.415802,411.371643 428.880798,402.960236 
z"/>
<path fill="#9100FF" opacity="1.000000" stroke="none" 
	d="
M97.086777,436.420929 
	C97.499962,430.611969 98.046432,425.110443 99.165321,419.419250 
	C101.147682,420.309143 102.702797,421.243988 103.945045,422.490601 
	C115.571358,434.158203 129.064072,443.326782 142.960022,452.277466 
	C142.572006,457.837433 142.263580,462.978516 141.955154,468.119598 
	C125.755882,459.490753 110.762993,449.142731 97.086777,436.420929 
z"/>
<path fill="#9100FF" opacity="1.000000" stroke="none" 
	d="
M86.115334,109.040260 
	C85.875938,103.820099 85.625450,98.600403 85.405098,93.379440 
	C85.351059,92.099190 85.395561,90.814774 85.145645,89.240921 
	C96.833794,76.287369 110.274193,65.453041 125.350464,56.600502 
	C125.881615,62.470734 125.958893,67.796547 125.883240,73.428810 
	C119.617355,78.527557 113.220512,83.004669 107.462517,88.191048 
	C100.078049,94.842430 93.207375,102.064224 86.115334,109.040260 
z"/>
<path fill="#C700FF" opacity="1.000000" stroke="none" 
	d="
M397.907715,62.565659 
	C397.455200,68.033333 396.871368,73.185806 395.804047,78.589203 
	C382.035278,68.009636 367.217712,59.668472 351.869385,51.733021 
	C350.122833,46.357342 347.848022,41.317966 353.110565,36.950863 
	C369.397003,42.916225 383.864136,52.093525 397.907715,62.565659 
z"/>
<path fill="#C700FF" opacity="1.000000" stroke="none" 
	d="
M387.960876,440.880188 
	C388.600647,446.015839 389.240479,451.151520 389.959839,456.703003 
	C380.455505,462.731140 371.017517,468.616333 361.230621,473.848938 
	C355.726410,476.791809 349.646210,478.657318 343.293335,480.712463 
	C342.827911,475.571594 342.894684,470.726379 343.136230,465.557373 
	C347.750244,463.404327 352.440521,462.016083 356.579590,459.659637 
	C367.170868,453.629669 377.516815,447.168762 387.960876,440.880188 
z"/>
<path fill="#BC00FF" opacity="1.000000" stroke="none" 
	d="
M352.940857,36.620659 
	C347.848022,41.317966 350.122833,46.357342 351.502808,51.676731 
	C348.997345,51.012730 346.888824,49.791290 344.622131,49.059887 
	C330.768494,44.589630 316.878967,40.230549 303.028015,35.426445 
	C303.370361,30.400827 303.686127,25.783176 304.001862,21.165525 
	C320.837433,24.339750 337.008972,29.655088 352.940857,36.620659 
z"/>
<path fill="#9900FF" opacity="1.000000" stroke="none" 
	d="
M126.036179,73.122360 
	C125.958893,67.796547 125.881615,62.470734 125.736954,56.621460 
	C131.516876,52.387321 137.144073,48.253632 143.264877,45.068527 
	C151.719070,40.669182 160.545364,36.984909 169.523468,33.325455 
	C169.235062,38.811665 168.635483,43.966789 167.871780,49.438271 
	C153.817169,57.543869 139.926666,65.333115 126.036179,73.122360 
z"/>
<path fill="#A300FF" opacity="1.000000" stroke="none" 
	d="
M168.035904,49.121918 
	C168.635483,43.966789 169.235062,38.811665 169.897385,33.269398 
	C183.697540,28.927952 197.434937,24.973642 211.671417,21.490168 
	C212.458939,26.347727 212.747391,30.734455 212.834167,35.461281 
	C205.099503,37.690460 197.489288,39.320950 190.055267,41.541370 
	C182.623718,43.761047 175.368454,46.570824 168.035904,49.121918 
z"/>
<path fill="#BC00FF" opacity="1.000000" stroke="none" 
	d="
M342.961456,465.881195 
	C342.894684,470.726379 342.827911,475.571594 342.903229,480.763916 
	C333.029022,484.405975 323.059814,487.855377 312.975372,490.926422 
	C308.374359,492.327606 303.545990,492.982147 298.411133,493.453217 
	C298.335175,488.342987 298.668793,483.754852 299.397888,479.086914 
	C314.182739,474.631805 328.572113,470.256500 342.961456,465.881195 
z"/>
<path fill="#9900FF" opacity="1.000000" stroke="none" 
	d="
M142.121368,468.432831 
	C142.263580,462.978516 142.572006,457.837433 143.283096,452.434082 
	C147.949112,454.486969 152.101028,457.044556 156.499039,459.066864 
	C165.596100,463.249847 174.824173,467.147888 183.914337,471.557678 
	C183.886917,476.580505 183.943512,481.208710 184.000107,485.836945 
	C170.685883,480.414032 157.371185,474.992249 144.058914,469.564514 
	C143.457260,469.319183 142.877548,469.020081 142.121368,468.432831 
z"/>
<path fill="#B500FF" opacity="1.000000" stroke="none" 
	d="
M303.587219,21.090691 
	C303.686127,25.783176 303.370361,30.400827 302.623779,35.491177 
	C301.284637,35.648926 300.396362,35.146420 299.465118,35.047218 
	C285.981171,33.610851 272.491516,32.228588 258.975403,30.426510 
	C258.632965,25.735390 258.318359,21.451132 258.003754,17.166874 
	C273.247711,16.247379 288.261017,18.034664 303.587219,21.090691 
z"/>
<path fill="#AC00FF" opacity="1.000000" stroke="none" 
	d="
M257.540100,17.092529 
	C258.318359,21.451132 258.632965,25.735390 258.514709,30.500782 
	C254.086609,31.004660 250.055862,30.693613 246.102890,31.113899 
	C235.063309,32.287643 224.055939,33.764172 213.035843,35.121185 
	C212.747391,30.734455 212.458939,26.347727 212.087524,21.564026 
	C217.517166,20.112661 222.990173,18.550877 228.551178,18.117088 
	C238.030472,17.377653 247.565063,17.346748 257.540100,17.092529 
z"/>
<path fill="#B500FF" opacity="1.000000" stroke="none" 
	d="
M299.002380,479.166748 
	C298.668793,483.754852 298.335175,488.342987 298.002258,493.382202 
	C284.777161,496.557709 271.405334,497.420074 257.466583,496.456055 
	C257.335846,491.680389 257.669495,487.423615 258.458801,483.095886 
	C266.676392,482.363739 274.443512,481.757233 282.198547,481.023163 
	C287.808136,480.492126 293.401703,479.791656 299.002380,479.166748 
z"/>
<path fill="#A300FF" opacity="1.000000" stroke="none" 
	d="
M184.347900,486.007324 
	C183.943512,481.208710 183.886917,476.580505 184.309387,471.488342 
	C191.376831,472.954834 197.928925,475.022949 204.565308,476.770996 
	C209.655273,478.111725 214.851578,479.048798 220.000198,480.616760 
	C219.651260,485.416534 219.302719,489.764862 218.954193,494.113220 
	C207.534698,491.468079 196.115204,488.822876 184.347900,486.007324 
z"/>
<path fill="#AC00FF" opacity="1.000000" stroke="none" 
	d="
M219.177399,494.464355 
	C219.302719,489.764862 219.651260,485.416534 220.426727,480.546204 
	C233.236832,481.071777 245.619995,482.119324 258.003174,483.166870 
	C257.669495,487.423615 257.335846,491.680389 257.003052,496.384979 
	C244.469482,496.160400 231.935043,495.487946 219.177399,494.464355 
z"/>
<path fill="#DE00FF" opacity="1.000000" stroke="none" 
	d="
M470.870178,146.721039 
	C470.591644,146.793060 470.392883,146.561234 470.137756,146.084518 
	C470.326691,146.070068 470.616211,146.262589 470.870178,146.721039 
z"/>
<path fill="#000000" opacity="1.000000" stroke="none" 
	d="
M258.458801,483.095886 
	C245.619995,482.119324 233.236832,481.071777 220.427124,480.094788 
	C214.851578,479.048798 209.655273,478.111725 204.565308,476.770996 
	C197.928925,475.022949 191.376831,472.954834 184.393433,471.093781 
	C174.824173,467.147888 165.596100,463.249847 156.499039,459.066864 
	C152.101028,457.044556 147.949112,454.486969 143.362701,452.015198 
	C129.064072,443.326782 115.571358,434.158203 103.945045,422.490601 
	C102.702797,421.243988 101.147682,420.309143 99.428802,419.094299 
	C88.788971,406.182495 78.137032,393.647614 68.263092,380.527222 
	C63.352390,374.001892 59.868690,366.402618 55.429630,359.125641 
	C50.325375,346.431061 44.731209,334.134674 40.965393,321.301788 
	C37.327930,308.906342 35.058144,296.034424 33.160038,283.227722 
	C31.670574,273.178101 30.882423,262.888062 31.149664,252.740845 
	C31.879135,225.042709 37.085567,198.153366 47.869564,172.487885 
	C48.933098,169.956726 49.949535,167.405777 51.015480,164.493698 
	C57.670765,152.547913 63.985252,140.777039 71.041588,129.469070 
	C75.386787,122.505791 80.864594,116.249275 85.974609,109.357849 
	C93.207375,102.064224 100.078049,94.842430 107.462517,88.191048 
	C113.220512,83.004669 119.617355,78.527557 125.883240,73.428810 
	C139.926666,65.333115 153.817169,57.543869 167.871780,49.438271 
	C175.368454,46.570824 182.623718,43.761047 190.055267,41.541370 
	C197.489288,39.320950 205.099503,37.690460 212.834167,35.461281 
	C224.055939,33.764172 235.063309,32.287643 246.102890,31.113899 
	C250.055862,30.693613 254.086609,31.004660 258.542542,30.907642 
	C272.491516,32.228588 285.981171,33.610851 299.465118,35.047218 
	C300.396362,35.146420 301.284637,35.648926 302.597168,35.899139 
	C316.878967,40.230549 330.768494,44.589630 344.622131,49.059887 
	C346.888824,49.791290 348.997345,51.012730 351.545532,52.063965 
	C367.217712,59.668472 382.035278,68.009636 395.638916,78.977959 
	C408.023773,89.165710 420.069336,99.225174 429.494965,111.985893 
	C431.531342,114.742775 433.988556,117.188789 436.565216,119.907883 
	C440.592804,125.816315 444.202759,131.665222 448.042725,137.359024 
	C456.526367,149.938370 462.848450,163.580521 468.551941,177.870605 
	C471.331726,186.554459 474.416748,194.950012 476.090210,203.618088 
	C478.583221,216.531067 480.269348,229.612457 481.919250,242.670151 
	C482.722656,249.028259 483.130676,255.511078 482.908234,261.909302 
	C482.358032,277.737274 480.729736,293.506409 476.480408,308.801941 
	C473.077728,321.049805 468.851471,333.068878 464.936340,345.575134 
	C458.578522,357.376099 452.697876,369.053925 445.828369,380.117828 
	C440.963318,387.953430 434.761047,394.958771 429.018250,402.647491 
	C420.415802,411.371643 412.115631,419.958588 403.419739,428.124115 
	C398.715546,432.541412 393.335938,436.239441 388.110962,440.571075 
	C377.516815,447.168762 367.170868,453.629669 356.579590,459.659637 
	C352.440521,462.016083 347.750244,463.404327 343.136230,465.557373 
	C328.572113,470.256500 314.182739,474.631805 299.397888,479.086914 
	C293.401703,479.791656 287.808136,480.492126 282.198547,481.023163 
	C274.443512,481.757233 266.676392,482.363739 258.458801,483.095886 
M298.074951,380.018433 
	C286.440369,380.013428 274.805817,380.006683 263.171234,380.003937 
	C255.672211,380.002197 252.149933,383.429077 251.222153,391.833221 
	C267.165070,391.833221 283.083588,391.833221 299.929443,391.976624 
	C314.201050,391.976624 328.472656,391.976624 343.458527,391.976624 
	C342.042786,388.377869 341.032928,385.169128 339.495392,382.237152 
	C338.927826,381.154816 337.122437,380.103210 335.872833,380.092773 
	C323.583649,379.990112 311.292633,380.110016 298.074951,380.018433 
M259.930237,216.975464 
	C272.422150,216.984512 284.915833,216.879196 297.404968,217.069733 
	C301.338104,217.129745 302.699829,215.204193 302.994843,211.809372 
	C303.344635,207.784409 300.951691,205.070282 296.467499,205.043839 
	C283.979950,204.970154 271.491150,205.110657 258.075592,205.018036 
	C242.718002,205.067673 227.360397,205.117310 211.075500,205.018936 
	C195.718552,205.068359 180.361603,205.117783 164.076965,205.019409 
	C158.426132,205.012756 152.775284,205.001907 147.124451,205.000519 
	C139.811508,204.998703 132.498566,204.995972 125.185646,205.010132 
	C121.012314,205.018219 119.201195,207.986435 119.217506,211.304276 
	C119.233009,214.456863 121.006241,217.093170 125.130966,217.040817 
	C138.754166,216.867905 152.379776,216.887253 166.931808,216.973724 
	C182.288956,216.926819 197.646118,216.879913 213.930664,216.974670 
	C228.954712,216.927597 243.978760,216.880508 259.930237,216.975464 
M166.075714,251.019241 
	C152.427948,251.014099 138.779816,251.064041 125.132622,250.971939 
	C120.746086,250.942322 119.096291,253.801804 119.183334,257.221008 
	C119.263588,260.373993 120.940216,263.079712 125.073227,263.034149 
	C139.048859,262.880005 153.026291,262.887390 167.930573,262.973907 
	C182.117462,262.973907 196.304352,262.973907 210.208023,262.973907 
	C211.835510,258.374573 213.045502,254.955048 214.385925,251.166946 
	C198.150635,251.166946 182.576859,251.166946 166.075714,251.019241 
M287.077148,232.016602 
	C274.448059,232.011795 261.818451,231.947144 249.190338,232.054855 
	C246.791367,232.075317 244.398193,232.778290 241.281387,233.028168 
	C233.583527,235.945663 229.079681,242.008194 226.105011,249.213928 
	C222.739044,257.367493 219.879318,265.730042 216.890945,273.755981 
	C213.256470,273.171844 210.129486,272.669250 206.081604,272.020111 
	C202.918396,272.013153 199.746964,271.855438 196.593552,272.027740 
	C187.401581,272.529877 180.448761,276.829346 180.930008,286.628754 
	C181.327774,294.727875 186.343613,298.994751 196.408463,299.000458 
	C198.125534,299.001434 199.842606,299.000610 201.559677,299.000610 
	C197.099167,304.094513 192.342911,308.078522 187.607132,312.086761 
	C182.918243,316.055328 177.533539,320.362549 177.257675,326.562744 
	C176.547501,342.523468 176.427170,358.574005 177.415634,374.505188 
	C177.686569,378.872070 182.154297,383.483246 185.658951,387.031311 
	C191.510376,392.955322 199.416916,392.245911 207.929855,391.976196 
	C216.164124,391.984802 224.433945,391.530304 232.620590,392.159027 
	C238.421982,392.604584 240.928574,390.167419 242.700607,384.762817 
	C243.897751,381.939636 245.207840,379.158112 246.267899,376.284363 
	C248.310043,370.748291 252.039429,368.664917 258.024170,368.881226 
	C268.336823,369.253906 278.676147,368.888916 289.931549,368.974945 
	C307.606598,369.021179 325.281677,369.067413 343.280212,369.746948 
	C344.809296,371.697327 346.712830,373.462555 347.788177,375.637299 
	C349.913971,379.936310 351.343079,384.587189 353.569305,388.825165 
	C354.339172,390.290771 356.598877,391.818390 358.213043,391.857056 
	C367.803711,392.086853 377.404633,391.888214 387.915436,391.977692 
	C390.081451,391.984619 392.248535,391.949127 394.413269,392.005402 
	C407.719635,392.351105 417.627869,380.090393 417.121277,369.152588 
	C416.589935,357.680389 416.527374,346.139099 417.140045,334.675049 
	C417.717957,323.861481 412.697021,316.768890 404.524261,310.773499 
	C400.082947,307.515411 396.187958,303.512634 391.090729,298.999451 
	C394.850983,298.999451 397.010284,298.892609 399.156067,299.017822 
	C408.828766,299.582306 411.925629,292.814667 412.983276,286.943329 
	C414.081635,280.846222 408.518250,273.253632 402.192078,272.965485 
	C397.127136,272.734802 392.065338,272.435577 386.192535,272.017548 
	C383.257294,272.626129 380.322052,273.234741 377.359955,273.848907 
	C373.465759,264.269196 370.017273,254.701721 365.725159,245.528992 
	C361.337097,236.151154 353.860626,231.036346 342.077240,232.016144 
	C324.052979,232.066269 306.028748,232.116394 287.077148,232.016602 
M165.932281,171.973495 
	C180.246902,171.983231 194.561523,172.006790 208.876129,171.995804 
	C214.462921,171.991516 216.922562,170.076843 217.003860,165.792816 
	C217.092743,161.109634 214.856918,159.050842 208.934998,159.032150 
	C193.958450,158.984894 178.981354,159.110809 163.076859,159.019501 
	C150.961899,159.014526 138.846497,158.950104 126.732201,159.037415 
	C122.598732,159.067184 118.361763,162.710388 119.152802,165.762238 
	C120.083344,169.352280 122.078667,172.138519 126.681412,172.056549 
	C139.453232,171.829086 152.230148,171.887131 165.932281,171.973495 
M168.931259,108.974319 
	C187.622284,108.927429 206.313324,108.880539 225.915161,108.973640 
	C227.746521,108.981033 229.603409,109.189690 231.404877,108.961296 
	C239.617615,107.920082 245.576248,114.600914 245.128174,122.355644 
	C244.591232,131.648285 244.720337,141.006226 245.070923,150.316681 
	C245.532791,162.582855 254.478363,173.629913 266.353821,176.792267 
	C277.236572,176.805984 288.119354,176.819702 299.807678,176.977615 
	C301.548187,177.319000 303.603912,177.189560 304.963593,178.099808 
	C307.788849,179.991241 310.913208,182.015732 312.643890,184.780899 
	C314.054871,187.035294 313.903961,190.442123 313.947296,193.345413 
	C314.088104,202.772888 313.999969,212.203766 313.999969,221.729813 
	C318.227173,221.729813 321.950989,221.729813 325.995941,221.729813 
	C325.995941,209.347931 326.424347,197.212830 325.755737,185.138489 
	C325.531891,181.096573 323.336884,176.472153 320.600494,173.397919 
	C313.883148,165.851257 306.326721,159.051468 298.843323,151.330353 
	C289.265289,141.871033 279.687225,132.411713 269.843109,122.332047 
	C263.963257,116.455513 257.749878,110.871178 252.284195,104.631813 
	C244.683197,95.954803 234.914536,96.632637 224.076889,97.016922 
	C205.385941,97.066841 186.695007,97.116760 167.076508,97.018974 
	C152.385208,97.068275 137.693924,97.117577 122.179695,97.020821 
	C108.220428,98.125183 97.107445,109.230927 97.082993,122.837753 
	C96.923317,211.726883 97.131027,300.616791 96.874718,389.505463 
	C96.831207,404.595398 111.031029,418.943512 126.929726,416.974670 
	C142.518875,416.974670 158.108017,416.974670 174.035690,416.974670 
	C172.931503,413.850159 171.499146,411.201233 171.146271,408.415527 
	C170.770569,405.449554 169.382355,404.951904 166.888382,404.971344 
	C152.926605,405.080261 138.964203,405.109741 124.218781,405.020294 
	C115.085632,403.800659 109.004448,396.702606 109.003792,387.192017 
	C108.997833,301.403351 109.089767,215.614487 108.881882,129.826340 
	C108.857132,119.615234 112.432648,112.693993 122.971092,109.009850 
	C137.981995,108.951080 152.992905,108.892311 168.931259,108.974319 
M178.800339,306.753571 
	C179.186859,303.133759 173.347183,297.012787 169.401733,297.006195 
	C155.097397,296.982239 140.792999,296.995514 126.488625,297.006165 
	C121.804222,297.009644 119.116730,299.159821 119.105797,302.866058 
	C119.096329,306.076813 122.511086,308.976166 126.502319,308.984467 
	C142.137283,309.017029 157.772736,309.053467 173.406708,308.927765 
	C175.014557,308.914795 176.613800,307.828339 178.800339,306.753571 
M228.158340,409.374268 
	C228.771072,407.400146 229.383789,405.425995 230.099655,403.119568 
	C213.491272,402.066986 196.658615,405.570312 181.001648,397.135223 
	C181.001648,399.175262 181.177368,400.531128 180.973160,401.827148 
	C179.632751,410.334106 186.995651,418.112762 196.359375,417.114258 
	C202.114609,416.500549 208.008041,416.707214 213.804398,417.083984 
	C220.029587,417.488617 224.627945,415.253235 228.158340,409.374268 
M394.435516,416.998413 
	C398.287415,416.498444 402.597443,416.930328 405.897461,415.307861 
	C413.156738,411.738861 413.636078,404.723846 412.785248,397.177979 
	C397.420441,405.848511 380.476074,401.990204 364.146332,403.246033 
	C365.791809,413.140594 370.171997,416.993439 379.479309,416.995514 
	C384.137482,416.996552 388.795654,416.997314 394.435516,416.998413 
M156.461365,341.997864 
	C146.479065,341.999664 136.496704,341.979645 126.514519,342.014801 
	C122.912376,342.027496 118.241966,345.679382 119.271370,348.305847 
	C120.301361,350.933807 123.223206,354.588470 125.453789,354.687592 
	C138.842163,355.282623 152.270309,354.982788 165.684937,354.982788 
	C165.684937,350.368927 165.684937,346.314148 165.684937,341.997742 
	C162.731171,341.997742 160.089981,341.997742 156.461365,341.997864 
z"/>
<path fill="#C700FF" opacity="1.000000" stroke="none" 
	d="
M343.004425,232.166809 
	C353.860626,231.036346 361.337097,236.151154 365.725159,245.528992 
	C370.017273,254.701721 373.465759,264.269196 377.359955,273.848907 
	C380.322052,273.234741 383.257294,272.626129 386.596802,272.550201 
	C387.001495,291.333069 387.001923,309.583282 386.562134,327.907959 
	C384.320953,327.989136 382.212677,327.403320 380.790802,328.140808 
	C378.634003,329.259491 376.954224,331.297699 375.071777,332.945282 
	C376.918610,334.629150 378.556244,336.694855 380.686249,337.861816 
	C382.091949,338.631989 384.205597,338.109985 386.008636,338.583191 
	C386.343323,343.460327 386.911560,347.918518 386.954803,352.381744 
	C387.082123,365.531250 387.001404,378.682770 387.002106,391.833496 
	C377.404633,391.888214 367.803711,392.086853 358.213043,391.857056 
	C356.598877,391.818390 354.339172,390.290771 353.569305,388.825165 
	C351.343079,384.587189 349.913971,379.936310 347.788177,375.637299 
	C346.712830,373.462555 344.809296,371.697327 343.128662,368.954468 
	C342.986053,358.163605 342.994965,348.165222 343.466522,338.095703 
	C347.923340,338.017334 351.943329,337.725220 355.904480,338.083557 
	C359.811432,338.437012 362.431458,336.467285 362.686768,333.281647 
	C362.918182,330.394196 360.683929,327.806641 356.974365,327.423279 
	C355.797455,316.347992 354.493256,305.677582 358.461975,295.094666 
	C363.189453,295.022461 367.457367,295.022461 372.283203,295.022461 
	C366.813446,281.583893 361.121582,268.869537 356.509857,255.774780 
	C353.900543,248.365753 349.787537,244.244781 342.003113,243.394958 
	C342.336243,239.360184 342.670349,235.763504 343.004425,232.166809 
z"/>
<path fill="#9100FF" opacity="1.000000" stroke="none" 
	d="
M126.001991,416.833801 
	C111.031029,418.943512 96.831207,404.595398 96.874718,389.505463 
	C97.131027,300.616791 96.923317,211.726883 97.082993,122.837753 
	C97.107445,109.230927 108.220428,98.125183 122.590538,97.527222 
	C122.682129,101.720802 122.362869,105.407974 122.043610,109.095154 
	C112.432648,112.693993 108.857132,119.615234 108.881882,129.826340 
	C109.089767,215.614487 108.997833,301.403351 109.003792,387.192017 
	C109.004448,396.702606 115.085632,403.800659 124.636246,405.496216 
	C125.369804,409.592682 125.685898,413.213226 126.001991,416.833801 
z"/>
<path fill="#A900FF" opacity="1.000000" stroke="none" 
	d="
M242.045837,385.110443 
	C240.928574,390.167419 238.421982,392.604584 232.620590,392.159027 
	C224.433945,391.530304 216.164124,391.984802 207.465546,391.446838 
	C207.000809,385.764709 206.904877,380.609863 207.018982,375.459625 
	C207.294418,363.027466 207.667984,350.597504 208.433472,338.095581 
	C210.197662,338.016663 211.541046,337.896332 212.860992,338.022095 
	C216.734207,338.391052 218.826569,335.595825 218.580505,332.843018 
	C218.422562,331.075867 215.132996,329.288727 212.925217,328.117401 
	C211.605423,327.417175 209.664032,327.888580 207.974060,327.423157 
	C207.630707,324.050568 207.060440,321.089630 207.042786,318.125427 
	C206.951508,302.806305 207.001663,287.486328 207.002502,272.166656 
	C210.129486,272.669250 213.256470,273.171844 216.890945,273.755981 
	C219.879318,265.730042 222.739044,257.367493 226.105011,249.213928 
	C229.079681,242.008194 233.583527,235.945663 241.641266,233.542145 
	C241.680511,238.743378 241.359894,243.430634 240.893677,248.443390 
	C240.280533,249.240692 239.607407,249.628815 239.376221,250.196808 
	C235.900284,258.736877 232.436035,267.282440 229.066742,275.865021 
	C226.628952,282.074768 224.335312,288.341095 221.755371,295.169891 
	C228.032257,295.169891 233.517853,295.169891 238.923035,295.506226 
	C235.337540,299.002411 234.645798,303.024567 234.962936,307.520813 
	C235.439850,314.282288 235.667969,321.061310 235.643066,327.911377 
	C232.697006,329.319946 229.781128,331.229492 231.363815,334.211304 
	C232.374832,336.116058 235.704269,336.822327 238.042725,337.966919 
	C238.596039,338.237732 239.344101,338.110687 240.008881,338.583313 
	C240.322601,351.250580 240.572266,363.503082 240.977341,375.750427 
	C241.080826,378.878784 241.676376,381.990875 242.045837,385.110443 
z"/>
<path fill="#A300FF" opacity="1.000000" stroke="none" 
	d="
M206.542053,272.093384 
	C207.001663,287.486328 206.951508,302.806305 207.042786,318.125427 
	C207.060440,321.089630 207.630707,324.050568 207.516434,327.496429 
	C203.924149,327.987396 200.574890,327.358063 197.660263,328.212097 
	C195.485413,328.849365 192.711258,331.153320 192.279037,333.161682 
	C191.619507,336.226196 194.267563,337.957550 197.526871,337.999542 
	C201.018707,338.044525 204.510269,338.110077 208.001953,338.166656 
	C207.667984,350.597504 207.294418,363.027466 207.018982,375.459625 
	C206.904877,380.609863 207.000809,385.764709 207.001862,391.375488 
	C199.416916,392.245911 191.510376,392.955322 185.658951,387.031311 
	C182.154297,383.483246 177.686569,378.872070 177.415634,374.505188 
	C176.427170,358.574005 176.547501,342.523468 177.257675,326.562744 
	C177.533539,320.362549 182.918243,316.055328 187.607132,312.086761 
	C192.342911,308.078522 197.099167,304.094513 201.559677,299.000610 
	C199.842606,299.000610 198.125534,299.001434 196.408463,299.000458 
	C186.343613,298.994751 181.327774,294.727875 180.930008,286.628754 
	C180.448761,276.829346 187.401581,272.529877 196.593552,272.027740 
	C199.746964,271.855438 202.918396,272.013153 206.542053,272.093384 
z"/>
<path fill="#CE00FF" opacity="1.000000" stroke="none" 
	d="
M387.458771,391.905579 
	C387.001404,378.682770 387.082123,365.531250 386.954803,352.381744 
	C386.911560,347.918518 386.343323,343.460327 386.466156,338.511078 
	C390.056702,338.015076 393.373840,338.628601 396.277130,337.797089 
	C398.458038,337.172424 400.107300,334.691467 401.993225,333.036896 
	C400.131836,331.357880 398.518616,328.858765 396.347931,328.201874 
	C393.460052,327.327972 390.137909,327.888947 387.002350,327.833496 
	C387.001923,309.583282 387.001495,291.333069 387.001587,272.624817 
	C392.065338,272.435577 397.127136,272.734802 402.192078,272.965485 
	C408.518250,273.253632 414.081635,280.846222 412.983276,286.943329 
	C411.925629,292.814667 408.828766,299.582306 399.156067,299.017822 
	C397.010284,298.892609 394.850983,298.999451 391.090729,298.999451 
	C396.187958,303.512634 400.082947,307.515411 404.524261,310.773499 
	C412.697021,316.768890 417.717957,323.861481 417.140045,334.675049 
	C416.527374,346.139099 416.589935,357.680389 417.121277,369.152588 
	C417.627869,380.090393 407.719635,392.351105 394.413269,392.005402 
	C392.248535,391.949127 390.081451,391.984619 387.458771,391.905579 
z"/>
<path fill="#BC00FF" opacity="1.000000" stroke="none" 
	d="
M343.003906,338.166840 
	C342.994965,348.165222 342.986053,358.163605 342.966919,368.637817 
	C325.281677,369.067413 307.606598,369.021179 289.382324,368.505615 
	C288.555420,365.249420 288.264435,362.463776 288.002625,359.675415 
	C287.329468,352.506409 286.669250,345.336151 286.467590,338.095734 
	C305.622162,338.072296 324.313049,338.119568 343.003906,338.166840 
z"/>
<path fill="#AF00FF" opacity="1.000000" stroke="none" 
	d="
M225.004211,97.166168 
	C234.914536,96.632637 244.683197,95.954803 252.284195,104.631813 
	C257.749878,110.871178 263.963257,116.455513 269.645386,122.864792 
	C268.965149,125.407532 268.083801,127.413750 268.064758,129.428131 
	C267.939301,142.684921 268.099335,155.944931 267.904266,169.200043 
	C267.870514,171.491821 266.588348,173.765228 265.882812,176.047104 
	C254.478363,173.629913 245.532791,162.582855 245.070923,150.316681 
	C244.720337,141.006226 244.591232,131.648285 245.128174,122.355644 
	C245.576248,114.600914 239.617615,107.920082 231.404877,108.961296 
	C229.603409,109.189690 227.746521,108.981033 225.458618,108.456146 
	C225.002808,104.347832 225.003510,100.756996 225.004211,97.166168 
z"/>
<path fill="#B100FF" opacity="1.000000" stroke="none" 
	d="
M286.003906,338.166412 
	C286.669250,345.336151 287.329468,352.506409 288.002625,359.675415 
	C288.264435,362.463776 288.555420,365.249420 288.918701,368.434875 
	C278.676147,368.888916 268.336823,369.253906 258.024170,368.881226 
	C252.039429,368.664917 248.310043,370.748291 246.267899,376.284363 
	C245.207840,379.158112 243.897751,381.939636 242.373230,384.936646 
	C241.676376,381.990875 241.080826,378.878784 240.977341,375.750427 
	C240.572266,363.503082 240.322601,351.250580 240.472610,338.512177 
	C255.954666,338.071716 270.979279,338.119080 286.003906,338.166412 
z"/>
<path fill="#B500FF" opacity="1.000000" stroke="none" 
	d="
M266.118317,176.419678 
	C266.588348,173.765228 267.870514,171.491821 267.904266,169.200043 
	C268.099335,155.944931 267.939301,142.684921 268.064758,129.428131 
	C268.083801,127.413750 268.965149,125.407532 269.778412,123.174957 
	C279.687225,132.411713 289.265289,141.871033 298.758118,151.925461 
	C298.782654,160.624847 298.892365,168.729141 299.002075,176.833405 
	C288.119354,176.819702 277.236572,176.805984 266.118317,176.419678 
z"/>
<path fill="#BC00FF" opacity="1.000000" stroke="none" 
	d="
M299.404877,176.905518 
	C298.892365,168.729141 298.782654,160.624847 298.890381,152.235901 
	C306.326721,159.051468 313.883148,165.851257 320.600494,173.397919 
	C323.336884,176.472153 325.531891,181.096573 325.755737,185.138489 
	C326.424347,197.212830 325.995941,209.347931 325.995941,221.729813 
	C321.950989,221.729813 318.227173,221.729813 313.999969,221.729813 
	C313.999969,212.203766 314.088104,202.772888 313.947296,193.345413 
	C313.903961,190.442123 314.054871,187.035294 312.643890,184.780899 
	C310.913208,182.015732 307.788849,179.991241 304.963593,178.099808 
	C303.603912,177.189560 301.548187,177.319000 299.404877,176.905518 
z"/>
<path fill="#A300FF" opacity="1.000000" stroke="none" 
	d="
M224.540558,97.091545 
	C225.003510,100.756996 225.002808,104.347832 225.003220,108.386154 
	C206.313324,108.880539 187.622284,108.927429 168.467697,108.495895 
	C168.004105,104.400543 168.004074,100.783607 168.004059,97.166679 
	C186.695007,97.116760 205.385941,97.066841 224.540558,97.091545 
z"/>
<path fill="#9900FF" opacity="1.000000" stroke="none" 
	d="
M178.508698,306.996765 
	C176.613800,307.828339 175.014557,308.914795 173.406708,308.927765 
	C157.772736,309.053467 142.137283,309.017029 126.502319,308.984467 
	C122.511086,308.976166 119.096329,306.076813 119.105797,302.866058 
	C119.116730,299.159821 121.804222,297.009644 126.488625,297.006165 
	C140.792999,296.995514 155.097397,296.982239 169.401733,297.006195 
	C173.347183,297.012787 179.186859,303.133759 178.508698,306.996765 
z"/>
<path fill="#A300FF" opacity="1.000000" stroke="none" 
	d="
M164.004486,159.167358 
	C178.981354,159.110809 193.958450,158.984894 208.934998,159.032150 
	C214.856918,159.050842 217.092743,161.109634 217.003860,165.792816 
	C216.922562,170.076843 214.462921,171.991516 208.876129,171.995804 
	C194.561523,172.006790 180.246902,171.983231 165.467560,171.462372 
	C164.670044,167.023300 164.337265,163.095322 164.004486,159.167358 
z"/>
<path fill="#A300FF" opacity="1.000000" stroke="none" 
	d="
M228.068512,409.753662 
	C224.627945,415.253235 220.029587,417.488617 213.804398,417.083984 
	C208.008041,416.707214 202.114609,416.500549 196.359375,417.114258 
	C186.995651,418.112762 179.632751,410.334106 180.973160,401.827148 
	C181.177368,400.531128 181.001648,399.175262 181.001648,397.135223 
	C196.658615,405.570312 213.491272,402.066986 230.099655,403.119568 
	C229.383789,405.425995 228.771072,407.400146 228.068512,409.753662 
z"/>
<path fill="#CE00FF" opacity="1.000000" stroke="none" 
	d="
M393.944672,416.998322 
	C388.795654,416.997314 384.137482,416.996552 379.479309,416.995514 
	C370.171997,416.993439 365.791809,413.140594 364.146332,403.246033 
	C380.476074,401.990204 397.420441,405.848511 412.785248,397.177979 
	C413.636078,404.723846 413.156738,411.738861 405.897461,415.307861 
	C402.597443,416.930328 398.287415,416.498444 393.944672,416.998322 
z"/>
<path fill="#BC00FF" opacity="1.000000" stroke="none" 
	d="
M342.540833,232.091476 
	C342.670349,235.763504 342.336243,239.360184 341.539551,243.470306 
	C323.719269,243.933716 306.361633,243.883698 289.002899,243.398514 
	C288.669373,239.364395 288.336945,235.765457 288.004486,232.166504 
	C306.028748,232.116394 324.052979,232.066269 342.540833,232.091476 
z"/>
<path fill="#9900FF" opacity="1.000000" stroke="none" 
	d="
M156.955078,341.997803 
	C160.089981,341.997742 162.731171,341.997742 165.684937,341.997742 
	C165.684937,346.314148 165.684937,350.368927 165.684937,354.982788 
	C152.270309,354.982788 138.842163,355.282623 125.453789,354.687592 
	C123.223206,354.588470 120.301361,350.933807 119.271370,348.305847 
	C118.241966,345.679382 122.912376,342.027496 126.514519,342.014801 
	C136.496704,341.979645 146.479065,341.999664 156.955078,341.997803 
z"/>
<path fill="#B100FF" opacity="1.000000" stroke="none" 
	d="
M287.540833,232.091553 
	C288.336945,235.765457 288.669373,239.364395 288.539246,243.473434 
	C276.439819,243.988586 264.786560,243.643494 253.174988,244.187500 
	C249.077347,244.379471 245.081558,246.744827 241.039276,248.117889 
	C241.359894,243.430634 241.680511,238.743378 242.001740,233.611237 
	C244.398193,232.778290 246.791367,232.075317 249.190338,232.054855 
	C261.818451,231.947144 274.448059,232.011795 287.540833,232.091553 
z"/>
<path fill="#9900FF" opacity="1.000000" stroke="none" 
	d="
M163.540680,159.093430 
	C164.337265,163.095322 164.670044,167.023300 165.003937,171.391815 
	C152.230148,171.887131 139.453232,171.829086 126.681412,172.056549 
	C122.078667,172.138519 120.083344,169.352280 119.152802,165.762238 
	C118.361763,162.710388 122.598732,159.067184 126.732201,159.037415 
	C138.846497,158.950104 150.961899,159.014526 163.540680,159.093430 
z"/>
<path fill="#9900FF" opacity="1.000000" stroke="none" 
	d="
M167.003036,262.833069 
	C153.026291,262.887390 139.048859,262.880005 125.073227,263.034149 
	C120.940216,263.079712 119.263588,260.373993 119.183334,257.221008 
	C119.096291,253.801804 120.746086,250.942322 125.132622,250.971939 
	C138.779816,251.064041 152.427948,251.014099 166.538696,251.540527 
	C167.002151,255.652237 167.002594,259.242645 167.003036,262.833069 
z"/>
<path fill="#A300FF" opacity="1.000000" stroke="none" 
	d="
M165.004654,205.167206 
	C180.361603,205.117783 195.718552,205.068359 211.539764,205.507935 
	C212.337112,209.608963 212.670181,213.220978 213.003265,216.832993 
	C197.646118,216.879913 182.288956,216.926819 166.467148,216.465393 
	C165.669876,212.360443 165.337265,208.763824 165.004654,205.167206 
z"/>
<path fill="#AC00FF" opacity="1.000000" stroke="none" 
	d="
M213.466949,216.903839 
	C212.670181,213.220978 212.337112,209.608963 212.003418,205.581940 
	C227.360397,205.117310 242.718002,205.067673 258.538513,205.539780 
	C259.001892,209.652161 259.002350,213.242798 259.002808,216.833435 
	C243.978760,216.880508 228.954712,216.927597 213.466949,216.903839 
z"/>
<path fill="#9900FF" opacity="1.000000" stroke="none" 
	d="
M126.465858,416.904236 
	C125.685898,413.213226 125.369804,409.592682 125.027863,405.569214 
	C138.964203,405.109741 152.926605,405.080261 166.888382,404.971344 
	C169.382355,404.951904 170.770569,405.449554 171.146271,408.415527 
	C171.499146,411.201233 172.931503,413.850159 174.035690,416.974670 
	C158.108017,416.974670 142.518875,416.974670 126.465858,416.904236 
z"/>
<path fill="#9900FF" opacity="1.000000" stroke="none" 
	d="
M167.540283,97.092827 
	C168.004074,100.783607 168.004105,104.400543 168.003967,108.425507 
	C152.992905,108.892311 137.981995,108.951080 122.507355,109.052505 
	C122.362869,105.407974 122.682129,101.720802 123.001999,97.600250 
	C137.693924,97.117577 152.385208,97.068275 167.540283,97.092827 
z"/>
<path fill="#B500FF" opacity="1.000000" stroke="none" 
	d="
M299.002075,391.833221 
	C283.083588,391.833221 267.165070,391.833221 251.222153,391.833221 
	C252.149933,383.429077 255.672211,380.002197 263.171234,380.003937 
	C274.805817,380.006683 286.440369,380.013428 298.532532,380.488586 
	C298.994110,384.583557 298.998108,388.208374 299.002075,391.833221 
z"/>
<path fill="#9900FF" opacity="1.000000" stroke="none" 
	d="
M164.540802,205.093307 
	C165.337265,208.763824 165.669876,212.360443 166.003479,216.394928 
	C152.379776,216.887253 138.754166,216.867905 125.130966,217.040817 
	C121.006241,217.093170 119.233009,214.456863 119.217506,211.304276 
	C119.201195,207.986435 121.012314,205.018219 125.185646,205.010132 
	C132.498566,204.995972 139.811508,204.998703 147.124451,205.000519 
	C152.775284,205.001907 158.426132,205.012756 164.540802,205.093307 
z"/>
<path fill="#A300FF" opacity="1.000000" stroke="none" 
	d="
M167.466797,262.903503 
	C167.002594,259.242645 167.002151,255.652237 167.002380,251.614380 
	C182.576859,251.166946 198.150635,251.166946 214.385925,251.166946 
	C213.045502,254.955048 211.835510,258.374573 210.208023,262.973907 
	C196.304352,262.973907 182.117462,262.973907 167.466797,262.903503 
z"/>
<path fill="#B500FF" opacity="1.000000" stroke="none" 
	d="
M259.466522,216.904449 
	C259.002350,213.242798 259.001892,209.652161 259.002136,205.614044 
	C271.491150,205.110657 283.979950,204.970154 296.467499,205.043839 
	C300.951691,205.070282 303.344635,207.784409 302.994843,211.809372 
	C302.699829,215.204193 301.338104,217.129745 297.404968,217.069733 
	C284.915833,216.879196 272.422150,216.984512 259.466522,216.904449 
z"/>
<path fill="#BC00FF" opacity="1.000000" stroke="none" 
	d="
M299.465759,391.904907 
	C298.998108,388.208374 298.994110,384.583557 298.996124,380.562744 
	C311.292633,380.110016 323.583649,379.990112 335.872833,380.092773 
	C337.122437,380.103210 338.927826,381.154816 339.495392,382.237152 
	C341.032928,385.169128 342.042786,388.377869 343.458527,391.976624 
	C328.472656,391.976624 314.201050,391.976624 299.465759,391.904907 
z"/>
<path fill="#000000" opacity="1.000000" stroke="none" 
	d="
M240.893677,248.443390 
	C245.081558,246.744827 249.077347,244.379471 253.174988,244.187500 
	C264.786560,243.643494 276.439819,243.988586 288.540314,243.908600 
	C306.361633,243.883698 323.719269,243.933716 341.540527,243.908386 
	C349.787537,244.244781 353.900543,248.365753 356.509857,255.774780 
	C361.121582,268.869537 366.813446,281.583893 372.283203,295.022461 
	C367.457367,295.022461 363.189453,295.022461 357.998352,295.020325 
	C345.384399,295.067505 333.693604,295.116791 321.539856,295.091980 
	C315.385162,295.067749 309.693420,295.117706 303.538147,295.093323 
	C289.050507,295.068298 275.026398,295.117645 260.538696,295.093170 
	C253.051239,295.069519 246.027344,295.119720 239.003448,295.169891 
	C233.517853,295.169891 228.032257,295.169891 221.755371,295.169891 
	C224.335312,288.341095 226.628952,282.074768 229.066742,275.865021 
	C232.436035,267.282440 235.900284,258.736877 239.376221,250.196808 
	C239.607407,249.628815 240.280533,249.240692 240.893677,248.443390 
z"/>
<path fill="#000000" opacity="1.000000" stroke="none" 
	d="
M286.467590,338.095734 
	C270.979279,338.119080 255.954666,338.071716 240.466309,338.095520 
	C239.344101,338.110687 238.596039,338.237732 238.042725,337.966919 
	C235.704269,336.822327 232.374832,336.116058 231.363815,334.211304 
	C229.781128,331.229492 232.697006,329.319946 236.106812,327.982788 
	C246.286804,327.927979 255.644257,327.880280 265.465393,327.904358 
	C276.620087,327.928406 287.311127,327.880676 298.465790,327.904724 
	C308.620483,327.928650 318.311523,327.880829 328.466125,327.905212 
	C338.287262,327.929382 347.644836,327.881378 357.002411,327.833374 
	C360.683929,327.806641 362.918182,330.394196 362.686768,333.281647 
	C362.431458,336.467285 359.811432,338.437012 355.904480,338.083557 
	C351.943329,337.725220 347.923340,338.017334 343.466522,338.095703 
	C324.313049,338.119568 305.622162,338.072296 286.467590,338.095734 
z"/>
<path fill="#C200FF" opacity="1.000000" stroke="none" 
	d="
M356.974365,327.423279 
	C347.644836,327.881378 338.287262,327.929382 328.465546,327.447205 
	C328.000946,321.623322 328.037781,316.329315 327.990112,311.036072 
	C327.935974,305.026886 329.672363,298.313202 322.002808,295.166107 
	C333.693604,295.116791 345.384399,295.067505 357.538818,295.092529 
	C354.493256,305.677582 355.797455,316.347992 356.974365,327.423279 
z"/>
<path fill="#000000" opacity="1.000000" stroke="none" 
	d="
M386.562134,327.907959 
	C390.137909,327.888947 393.460052,327.327972 396.347931,328.201874 
	C398.518616,328.858765 400.131836,331.357880 401.993225,333.036896 
	C400.107300,334.691467 398.458038,337.172424 396.277130,337.797089 
	C393.373840,338.628601 390.056702,338.015076 386.459808,338.094421 
	C384.205597,338.109985 382.091949,338.631989 380.686249,337.861816 
	C378.556244,336.694855 376.918610,334.629150 375.071777,332.945282 
	C376.954224,331.297699 378.634003,329.259491 380.790802,328.140808 
	C382.212677,327.403320 384.320953,327.989136 386.562134,327.907959 
z"/>
<path fill="#AF00FF" opacity="1.000000" stroke="none" 
	d="
M265.001709,327.832581 
	C255.644257,327.880280 246.286804,327.927979 236.465607,327.904297 
	C235.667969,321.061310 235.439850,314.282288 234.962936,307.520813 
	C234.645798,303.024567 235.337540,299.002411 238.923035,295.506226 
	C246.027344,295.119720 253.051239,295.069519 260.652710,295.428467 
	C262.153473,298.320587 263.688538,300.755798 263.886932,303.295410 
	C264.524231,311.453705 264.667725,319.650574 265.001709,327.832581 
z"/>
<path fill="#000000" opacity="1.000000" stroke="none" 
	d="
M208.433472,338.095581 
	C204.510269,338.110077 201.018707,338.044525 197.526871,337.999542 
	C194.267563,337.957550 191.619507,336.226196 192.279037,333.161682 
	C192.711258,331.153320 195.485413,328.849365 197.660263,328.212097 
	C200.574890,327.358063 203.924149,327.987396 207.544418,327.906586 
	C209.664032,327.888580 211.605423,327.417175 212.925217,328.117401 
	C215.132996,329.288727 218.422562,331.075867 218.580505,332.843018 
	C218.826569,335.595825 216.734207,338.391052 212.860992,338.022095 
	C211.541046,337.896332 210.197662,338.016663 208.433472,338.095581 
z"/>
<path fill="#B500FF" opacity="1.000000" stroke="none" 
	d="
M265.465393,327.904358 
	C264.667725,319.650574 264.524231,311.453705 263.886932,303.295410 
	C263.688538,300.755798 262.153473,298.320587 261.116302,295.502289 
	C275.026398,295.117645 289.050507,295.068298 303.412140,295.415436 
	C301.620605,297.982605 296.793152,297.117493 297.006226,301.950623 
	C297.386475,310.575928 297.675171,319.205292 298.002136,327.832947 
	C287.311127,327.880676 276.620087,327.928406 265.465393,327.904358 
z"/>
<path fill="#BC00FF" opacity="1.000000" stroke="none" 
	d="
M298.465790,327.904724 
	C297.675171,319.205292 297.386475,310.575928 297.006226,301.950623 
	C296.793152,297.117493 301.620605,297.982605 303.875671,295.489746 
	C309.693420,295.117706 315.385162,295.067749 321.539856,295.091980 
	C329.672363,298.313202 327.935974,305.026886 327.990112,311.036072 
	C328.037781,316.329315 328.000946,321.623322 328.001984,327.375000 
	C318.311523,327.880829 308.620483,327.928650 298.465790,327.904724 
z"/>
</svg>