<svg version="1.1" id="Layer_1" xmlns="http://www.w3.org/2000/svg" xmlns:xlink="http://www.w3.org/1999/xlink" x="0px" y="0px"
	 width="100%" viewBox="0 0 1024 1024" enable-background="new 0 0 1024 1024" xml:space="preserve">
<path fill="#000000" opacity="1.000000" stroke="none" 
	d="
M539.292725,839.875793 
	C486.891571,819.308167 440.596680,789.292053 397.505859,754.162659 
	C334.714325,702.972473 278.681946,645.155273 229.975037,580.379822 
	C200.718323,541.471252 175.738342,500.018280 158.057663,454.469269 
	C143.451721,416.841400 134.701355,378.043793 136.816116,337.433838 
	C138.707870,301.106049 148.677490,267.317963 170.699524,237.751373 
	C177.103180,229.153900 185.381287,222.304703 192.801224,214.657043 
	C199.299240,207.959564 205.947601,201.406036 212.602310,194.862930 
	C228.123291,179.602219 251.608582,178.315659 267.741974,193.003693 
	C282.759369,206.675766 296.753815,221.474701 311.139404,235.836853 
	C340.267914,264.917908 369.224762,294.172485 398.521423,323.082855 
	C411.552979,335.942566 416.834229,350.558960 411.218109,368.369232 
	C409.442383,374.000458 406.234711,378.841217 402.025940,383.058655 
	C386.606323,398.510223 371.249359,414.024353 355.881256,429.527222 
	C348.449127,437.024567 349.324188,435.175751 353.290863,443.349091 
	C393.553467,526.310608 452.518250,591.562927 534.925354,634.473633 
	C541.709778,638.006348 548.889526,640.772644 555.765137,644.140869 
	C558.700012,645.578552 560.524475,644.885071 562.707092,642.682373 
	C578.543457,626.700256 594.486145,610.823303 610.423706,594.941711 
	C628.035706,577.391418 651.995056,577.140747 669.585754,594.618713 
	C712.849670,637.605408 756.038086,680.668518 799.151917,723.805664 
	C817.217712,741.881104 816.998901,766.040100 798.924500,784.107544 
	C789.730652,793.297729 780.249634,802.219482 771.386292,811.717834 
	C750.504395,834.095886 724.179993,846.662415 695.181458,854.169495 
	C653.642334,864.923157 612.380188,861.814941 571.418457,850.495239 
	C560.654663,847.520630 550.116699,843.886780 539.292725,839.875793 
M622.499939,822.082214 
	C633.314697,822.504578 643.661133,820.196594 653.776733,816.636780 
	C655.754883,815.940674 658.347229,815.505371 658.344299,812.743225 
	C658.341431,810.089783 656.315369,808.790710 654.032959,807.813232 
	C647.472839,805.003723 640.534546,804.187561 633.527039,804.115479 
	C617.378845,803.949280 601.222046,804.258850 585.081116,803.864746 
	C573.896606,803.591797 563.424255,801.444519 553.485535,794.897217 
	C544.100220,788.714539 532.160278,789.422180 521.134949,788.190857 
	C520.409119,788.109802 519.530090,788.612000 518.856018,789.049072 
	C517.953125,789.634399 517.265259,790.872864 518.124634,791.564941 
	C521.661804,794.413513 522.248108,800.339417 526.780518,801.542358 
	C535.395874,803.829102 542.574463,809.186584 551.025024,811.773499 
	C558.429260,814.040039 565.985168,814.755249 573.581726,815.616272 
	C589.603027,817.432251 605.320801,821.517883 622.499939,822.082214 
z"/>
<path fill="#000000" opacity="1.000000" stroke="none" 
	d="
M776.352173,608.980042 
	C767.796997,605.589905 766.036072,598.640625 772.142456,592.494629 
	C796.789978,567.687256 821.531067,542.972534 846.295349,518.281433 
	C850.776611,513.813416 856.144897,513.643494 860.072571,517.482422 
	C863.822571,521.147705 863.724609,526.902588 859.351074,531.298828 
	C834.569702,556.208496 809.699036,581.029358 784.844543,605.866211 
	C782.627258,608.081848 779.936096,609.247620 776.352173,608.980042 
z"/>
<path fill="#000000" opacity="1.000000" stroke="none" 
	d="
M453.971252,148.971039 
	C433.576721,169.359772 413.429077,189.495392 393.280212,209.629761 
	C392.337646,210.571609 391.422302,211.545410 390.428619,212.430557 
	C386.218201,216.181000 380.999359,216.216782 377.479614,212.552399 
	C373.847931,208.771469 373.765625,203.700134 377.697968,199.570145 
	C383.324646,193.660706 389.199402,187.987549 394.967255,182.212570 
	C414.036957,163.119370 433.074188,143.993622 452.193817,124.950562 
	C458.399109,118.770142 466.529419,120.390549 468.707489,128.031342 
	C469.753296,131.700104 468.331757,134.547180 465.870697,137.048843 
	C462.015839,140.967361 458.105011,144.830872 453.971252,148.971039 
z"/>
<path fill="#000000" opacity="1.000000" stroke="none" 
	d="
M887.544678,635.732666 
	C891.098755,643.378723 888.824829,648.411743 881.190002,650.410889 
	C858.529541,656.343933 835.856995,662.230774 813.188965,668.134827 
	C809.104248,669.198792 805.225037,669.183899 802.183533,665.694336 
	C799.645386,662.782349 799.212830,659.498535 800.706787,655.924561 
	C801.902161,653.064697 804.134094,651.519836 807.018311,650.769836 
	C830.647339,644.625122 854.281433,638.499634 877.905273,632.335083 
	C881.749207,631.331970 884.727905,632.673157 887.544678,635.732666 
z"/>
<path fill="#000000" opacity="1.000000" stroke="none" 
	d="
M421.882690,254.709503 
	C442.214111,249.437210 462.133270,244.208496 482.079803,239.086533 
	C490.350403,236.962784 495.696991,240.725708 495.336945,248.162506 
	C495.121643,252.609390 492.643127,255.217285 488.532471,256.288208 
	C464.901703,262.444641 441.269348,268.596252 417.604218,274.618500 
	C412.330017,275.960724 407.924194,273.115051 406.484558,267.988586 
	C405.193756,263.392212 407.765808,258.832489 412.826874,257.128265 
	C415.653046,256.176575 418.592865,255.562408 421.882690,254.709503 
z"/>
<path fill="#000000" opacity="1.000000" stroke="none" 
	d="
M335.845459,181.020340 
	C331.995331,183.724457 328.312408,183.895798 324.898987,181.271561 
	C321.383209,178.568680 320.529572,174.877655 321.663910,170.558884 
	C327.655457,147.747726 333.541046,124.908714 339.540192,102.099564 
	C341.264862,95.542107 345.665283,92.528404 350.998657,93.934753 
	C356.278168,95.326897 358.709534,100.222183 357.046661,106.809509 
	C353.106567,122.418030 349.030609,137.992310 344.990601,153.575531 
	C343.156921,160.648254 341.217194,167.694107 339.454620,174.784256 
	C338.872345,177.126480 337.981628,179.180313 335.845459,181.020340 
z"/>
<path fill="#000000" opacity="1.000000" stroke="none" 
	d="
M733.012390,496.281158 
	C735.275024,489.220764 738.492676,486.833374 744.187500,487.695923 
	C749.967163,488.571320 752.559082,493.670258 750.713928,500.914948 
	C746.496704,517.473328 742.197998,534.010986 737.924683,550.555115 
	C736.347229,556.661987 734.842834,562.789978 733.132629,568.859741 
	C731.389343,575.046936 727.003540,577.854065 721.726929,576.412048 
	C716.461487,574.972961 714.043091,570.342651 715.602844,564.204163 
	C721.325989,541.680298 727.123474,519.175293 733.012390,496.281158 
z"/>
<path fill="#000000" opacity="1.000000" stroke="none" 
	d="
M228.050293,920.242065 
	C224.284683,920.927612 219.302536,921.165527 219.222351,917.482605 
	C219.139862,913.693359 224.347397,914.068420 227.718521,913.853760 
	C228.319351,913.815491 228.944794,914.163696 229.558258,914.333252 
	C230.234314,916.580383 229.256226,918.290161 228.050293,920.242065 
z"/>
</svg>