<svg version="1.1" id="Layer_1" xmlns="http://www.w3.org/2000/svg" xmlns:xlink="http://www.w3.org/1999/xlink" x="0px" y="0px"
	 width="100%" viewBox="0 0 7972 7972" enable-background="new 0 0 7972 7972" xml:space="preserve">
<path fill="#FFFFFF" opacity="1.000000" stroke="none" 
	d="
M5068.000000,7976.000000 
	C3378.666748,7976.000000 1691.333374,7976.000000 4.000000,7976.000000 
	C4.000000,5318.666504 4.000000,2661.333252 4.000000,4.000001 
	C2661.333252,4.000001 5318.666504,4.000001 7976.000000,4.000000 
	C7976.000000,2661.333252 7976.000000,5318.666504 7976.000000,7976.000000 
	C7007.333496,7976.000000 6038.666504,7976.000000 5068.000000,7976.000000 
M1042.498169,3713.892578 
	C1040.299561,3718.884033 1040.053589,3723.666748 1043.846191,3731.746094 
	C1042.859375,3770.926270 1041.302612,3810.101807 1040.989380,3849.287354 
	C1039.932495,3981.548828 1039.563477,4113.812500 1043.674561,4246.041504 
	C1043.819214,4250.692383 1043.868774,4255.346191 1042.259399,4262.103027 
	C1040.383545,4268.336914 1039.450439,4274.467285 1044.110229,4283.719727 
	C1045.409790,4325.146484 1046.709351,4366.573242 1046.567017,4409.325684 
	C1044.790161,4412.102539 1045.757446,4414.216309 1048.089355,4419.695312 
	C1049.360596,4450.462891 1050.631714,4481.230469 1050.257324,4513.669922 
	C1048.130615,4517.655762 1048.741821,4521.105469 1052.290527,4527.662109 
	C1053.437012,4548.262695 1054.683960,4568.858398 1055.707886,4589.464844 
	C1057.492065,4625.375488 1059.138306,4661.292480 1060.843750,4697.207031 
	C1060.906860,4698.538574 1060.956299,4699.871094 1061.061646,4701.199219 
	C1063.221558,4728.387207 1065.562988,4755.562500 1067.504883,4782.766113 
	C1069.448120,4809.989746 1070.848511,4837.250977 1072.763794,4864.476562 
	C1074.071167,4883.062500 1075.708618,4901.628418 1077.463013,4920.178223 
	C1079.404297,4940.704102 1081.778320,4961.188965 1083.720947,4981.714355 
	C1085.602051,5001.590820 1086.814697,5021.534668 1088.966431,5041.378906 
	C1092.192871,5071.132324 1095.991821,5100.823730 1099.531372,5130.543457 
	C1103.937012,5167.533691 1107.652954,5204.622559 1112.889038,5241.495117 
	C1119.807861,5290.217285 1127.890747,5338.774414 1135.512695,5387.396484 
	C1145.408325,5450.523438 1157.964600,5513.145996 1172.732910,5575.287598 
	C1186.434082,5632.938965 1201.804688,5690.158691 1223.827148,5745.343262 
	C1235.450195,5774.469238 1248.425171,5802.861328 1266.147095,5828.951172 
	C1283.121826,5853.941406 1305.283813,5872.070312 1333.108398,5883.870605 
	C1363.222656,5896.641602 1394.107910,5907.050781 1425.655273,5915.441406 
	C1513.216309,5938.729004 1602.294556,5954.433594 1691.799438,5967.908203 
	C1716.789917,5971.670898 1741.795776,5975.343750 1766.831787,5978.787598 
	C1789.897217,5981.959961 1812.990356,5984.958984 1836.111816,5987.691406 
	C1863.861084,5990.969727 1891.658325,5993.840332 1919.425781,5996.967285 
	C1950.488525,6000.465820 1981.506226,6004.403809 2012.607544,6007.509766 
	C2047.035278,6010.947754 2081.545410,6013.551758 2116.001221,6016.718750 
	C2153.095459,6020.127441 2190.147217,6024.011230 2227.256592,6027.238281 
	C2261.726562,6030.235352 2296.234375,6032.830078 2330.750732,6035.242676 
	C2359.304932,6037.239258 2387.895508,6038.713867 2416.470459,6040.412598 
	C2419.796631,6040.609863 2423.128174,6040.722656 2426.451660,6040.952637 
	C2458.971680,6043.201660 2491.490723,6045.467285 2525.231689,6049.317383 
	C2527.936523,6051.425781 2530.112305,6050.563965 2535.533447,6048.209473 
	C2554.358887,6049.381348 2573.184570,6050.553711 2593.231689,6053.317383 
	C2595.943115,6055.428223 2598.117920,6054.563477 2603.540527,6052.180176 
	C2623.697021,6053.363281 2643.853516,6054.545898 2665.236084,6057.318848 
	C2667.955322,6059.425781 2670.128662,6058.563965 2675.586914,6056.170898 
	C2688.093262,6057.129395 2700.584717,6058.411621 2713.108643,6058.985352 
	C2751.401367,6060.738281 2789.706787,6062.218750 2829.243164,6065.378906 
	C2831.972168,6067.455566 2834.135986,6066.555664 2839.653076,6064.173828 
	C2866.438477,6065.367188 2893.224121,6066.560059 2921.585693,6069.496582 
	C2925.435303,6071.875488 2928.911621,6071.439453 2935.681396,6068.196777 
	C2965.123779,6069.391602 2994.566406,6070.586426 3025.586182,6073.521484 
	C3029.447510,6075.868164 3032.923584,6075.415039 3039.715576,6072.166504 
	C3059.548096,6073.151855 3079.370605,6074.482910 3099.215088,6075.058105 
	C3159.471924,6076.805664 3219.737305,6078.261719 3281.572754,6081.598633 
	C3285.474854,6083.999023 3288.955322,6083.520996 3295.748291,6080.093262 
	C3324.751465,6081.063477 3353.749512,6082.259277 3382.759521,6082.936035 
	C3408.499268,6083.536621 3434.252197,6083.560547 3461.576904,6085.604980 
	C3465.494873,6088.009766 3468.969238,6087.484375 3475.749512,6084.060547 
	C3523.653320,6085.079102 3571.553223,6086.679688 3619.461670,6087.001465 
	C3738.660889,6087.802734 3857.866455,6088.754883 3977.064209,6088.286133 
	C4123.528320,6087.710449 4269.995605,6089.382812 4416.461914,6085.233398 
	C4506.939941,6082.669434 4597.518066,6083.541504 4689.679199,6081.582031 
	C4693.557129,6083.597168 4697.004395,6083.096191 4703.726562,6079.927734 
	C4746.484375,6078.617188 4789.242188,6077.306641 4833.685059,6077.574219 
	C4837.572754,6079.580078 4841.018555,6079.074219 4847.715820,6075.862305 
	C4883.810059,6074.607422 4919.903809,6073.352539 4957.663086,6073.749023 
	C4961.639160,6075.879395 4965.093262,6075.284668 4971.685547,6071.762695 
	C5001.123047,6070.540527 5030.560547,6069.318848 5061.670410,6069.742676 
	C5065.651855,6071.875000 5069.103027,6071.273926 5075.665039,6067.732422 
	C5102.443359,6066.507812 5129.221680,6065.283691 5157.312988,6065.564941 
	C5160.206055,6067.478027 5162.272461,6066.287598 5167.642090,6063.759277 
	C5183.575684,6062.750977 5199.495605,6061.264160 5215.444824,6060.821777 
	C5269.360840,6059.325684 5323.186035,6056.286133 5376.993652,6052.645508 
	C5421.481445,6049.634766 5466.018555,6047.375488 5510.519531,6044.553711 
	C5549.701660,6042.069336 5588.860352,6039.206543 5628.036621,6036.625000 
	C5655.936523,6034.786133 5683.848633,6033.139160 5711.754883,6031.395996 
	C5714.414551,6031.229980 5717.071289,6031.011230 5719.726074,6030.776855 
	C5744.904297,6028.556152 5770.074219,6026.227539 5795.262695,6024.130371 
	C5817.151855,6022.308105 5839.093262,6021.075195 5860.955078,6018.988281 
	C5894.723145,6015.764648 5928.444336,6012.053711 5962.182129,6008.512207 
	C5999.889648,6004.554199 6037.623047,6000.818359 6075.290039,5996.502930 
	C6119.562500,5991.430176 6163.849609,5986.385254 6207.994629,5980.333984 
	C6264.000977,5972.657227 6319.986328,5964.690918 6375.767578,5955.547363 
	C6438.799316,5945.216309 6501.437012,5932.697754 6563.164062,5916.025879 
	C6595.974121,5907.163574 6628.468262,5897.272949 6659.477051,5883.225586 
	C6678.333008,5874.683594 6697.010742,5865.268555 6709.715332,5848.074219 
	C6723.567871,5829.326172 6736.144043,5809.756836 6746.429688,5788.685547 
	C6759.319824,5762.280273 6770.197754,5735.094238 6779.443848,5707.283203 
	C6801.092285,5642.171875 6817.942871,5575.783203 6831.912109,5505.232910 
	C6838.707520,5468.689941 6845.765625,5432.193848 6852.210449,5395.588867 
	C6856.928223,5368.797852 6860.869141,5341.868652 6865.100586,5314.992188 
	C6868.710449,5292.059082 6872.623047,5269.165039 6875.705078,5246.160156 
	C6879.052734,5221.166504 6881.556152,5196.060547 6884.506348,5171.013184 
	C6885.903320,5159.147949 6887.443359,5147.298828 6888.991211,5135.451660 
	C6891.224121,5118.356934 6893.875488,5101.308594 6895.697754,5084.170898 
	C6897.663574,5065.682617 6897.611328,5046.891602 6900.824219,5028.652832 
	C6903.392090,5014.080566 6903.215820,4999.505859 6904.803711,4984.987793 
	C6907.039062,4964.548828 6909.870605,4944.162109 6911.593750,4923.681641 
	C6913.654785,4899.184082 6914.817383,4874.610840 6916.370605,4850.070312 
	C6916.455078,4848.741211 6916.526855,4847.409180 6916.659180,4846.084473 
	C6918.967773,4822.978027 6921.854004,4799.910645 6923.425293,4776.754395 
	C6924.774414,4756.872070 6924.944336,4736.979980 6927.159180,4717.065430 
	C6929.575684,4695.340332 6928.945801,4673.325684 6931.180176,4651.414551 
	C6933.736816,4626.345703 6932.619141,4601.009766 6935.125977,4575.747559 
	C6937.942871,4547.367188 6936.562500,4518.677734 6939.134766,4490.083496 
	C6942.227051,4455.692383 6938.134277,4420.853027 6943.529785,4386.450684 
	C6943.247070,4321.192871 6946.003906,4256.001465 6947.525391,4190.780762 
	C6948.644043,4142.814941 6948.078613,4094.807129 6948.120605,4046.818115 
	C6948.168457,3992.830322 6948.541016,3938.836670 6947.877441,3884.856445 
	C6947.214355,3830.958496 6948.931152,3777.072754 6944.857910,3723.145508 
	C6941.252930,3675.417236 6945.302246,3627.394287 6940.902344,3579.469238 
	C6937.625977,3543.784180 6940.480469,3507.702393 6936.690918,3471.815674 
	C6933.834961,3444.766357 6935.218750,3417.414551 6933.136719,3390.136230 
	C6930.815430,3359.717529 6929.702148,3329.082764 6928.052246,3298.542236 
	C6926.510254,3269.998535 6925.028809,3241.451172 6923.509277,3212.906250 
	C6923.438477,3211.577637 6923.247559,3210.255371 6923.125488,3208.929199 
	C6920.812500,3183.821045 6918.237793,3158.733887 6916.266113,3133.599121 
	C6914.343262,3109.086914 6913.041992,3084.526123 6911.452148,3059.987793 
	C6911.366211,3058.660400 6911.120117,3057.343994 6910.975586,3056.019775 
	C6908.672363,3034.919189 6906.211914,3013.833984 6904.122559,2992.712402 
	C6902.291504,2974.206055 6901.109863,2955.634277 6899.221191,2937.134521 
	C6896.997070,2915.358398 6894.294434,2893.631104 6891.849121,2871.876953 
	C6890.217285,2857.361328 6888.990234,2842.792969 6887.020996,2828.324219 
	C6883.710938,2804.008545 6879.729004,2779.784424 6876.450684,2755.464844 
	C6873.170898,2731.128662 6871.068848,2706.618408 6867.259277,2682.371826 
	C6861.595215,2646.324951 6855.197754,2610.384033 6848.532227,2574.505859 
	C6840.651855,2532.085205 6832.675781,2489.669678 6823.800781,2447.449463 
	C6810.797852,2385.589355 6794.525391,2324.584473 6772.807129,2265.137207 
	C6762.753418,2237.617432 6751.966309,2210.433350 6737.859863,2184.639160 
	C6729.971191,2170.212646 6717.319336,2158.438477 6713.946289,2141.441650 
	C6713.478516,2139.084229 6711.222168,2136.820801 6709.294434,2135.060303 
	C6701.948730,2128.352295 6694.818359,2121.299072 6686.839355,2115.416016 
	C6668.945312,2102.221680 6648.145508,2094.820068 6627.453613,2087.424316 
	C6589.843750,2073.981445 6551.448242,2063.318848 6512.330078,2055.198975 
	C6476.574219,2047.777344 6441.035156,2039.211670 6405.121582,2032.681641 
	C6367.920410,2025.917358 6330.414062,2020.787476 6292.985840,2015.324219 
	C6255.570801,2009.863037 6218.092285,2004.835205 6180.630371,1999.699707 
	C6168.136230,1997.987061 6155.600586,1996.575195 6143.094727,1994.943237 
	C6125.998535,1992.712280 6108.920410,1990.337158 6091.818848,1988.149658 
	C6080.630371,1986.718384 6069.432617,1985.308105 6058.205078,1984.246216 
	C6039.690430,1982.494873 6021.051270,1981.751709 6002.640625,1979.273438 
	C5977.617188,1975.905151 5952.552734,1973.323364 5927.369141,1971.733521 
	C5924.712402,1971.565796 5922.060547,1971.299805 5919.412598,1971.015259 
	C5898.310547,1968.746826 5877.240723,1966.115845 5856.101074,1964.277954 
	C5833.598633,1962.321411 5811.030762,1961.113892 5788.492188,1959.569580 
	C5787.163574,1959.478516 5785.831055,1959.368774 5784.518066,1959.154663 
	C5758.913574,1954.977539 5732.981445,1954.359009 5707.196289,1952.217773 
	C5682.034180,1950.128174 5656.789062,1949.049805 5631.580566,1947.521484 
	C5630.916504,1947.481323 5630.240723,1947.437256 5629.597168,1947.284668 
	C5603.493652,1941.098633 5576.594238,1945.257324 5550.189941,1940.787476 
	C5532.012695,1937.710205 5513.159180,1939.129028 5494.562500,1936.920044 
	C5472.199707,1934.263916 5449.493164,1935.367188 5426.915039,1932.789917 
	C5403.875488,1930.160522 5380.516602,1931.509521 5357.251953,1928.878296 
	C5332.896484,1926.123779 5308.188965,1927.273682 5283.598145,1924.888916 
	C5255.208496,1922.135620 5226.517090,1923.716553 5197.939941,1920.763672 
	C5170.891602,1917.968750 5143.542969,1919.478149 5116.265625,1916.982788 
	C5081.891602,1913.838257 5047.193848,1915.993774 5012.606445,1912.823853 
	C4977.558594,1909.611938 4942.211426,1911.917480 4906.926270,1908.996216 
	C4864.554688,1905.488037 4821.864746,1907.956421 4779.262695,1904.954712 
	C4725.527832,1901.168457 4671.537598,1903.775757 4617.594238,1901.113159 
	C4541.833008,1897.373535 4465.843750,1900.000610 4389.941406,1896.861450 
	C4330.049805,1894.384644 4269.988281,1895.930298 4210.001953,1895.864502 
	C4100.026855,1895.743774 3990.045898,1895.052124 3880.077393,1895.903931 
	C3770.194336,1896.754883 3660.284912,1893.409424 3550.412598,1899.165649 
	C3506.531738,1901.464600 3462.444824,1899.560547 3418.463867,1900.291504 
	C3373.896484,1901.031982 3329.346924,1902.785889 3284.783936,1903.850098 
	C3264.796875,1904.327515 3244.783203,1903.827393 3224.803711,1904.463501 
	C3204.891357,1905.097534 3185.015381,1906.793579 3165.108154,1907.676270 
	C3130.560303,1909.208252 3096.019775,1908.032837 3061.382812,1910.917847 
	C3021.691162,1914.223999 2981.618652,1911.954468 2941.747803,1915.421875 
	C2912.637451,1917.953613 2883.340576,1916.088989 2854.047363,1919.007812 
	C2822.373535,1922.163940 2790.286133,1920.035278 2758.411621,1923.414673 
	C2734.668701,1925.931885 2710.635498,1925.398315 2686.734131,1926.803955 
	C2655.573730,1928.636353 2624.363770,1930.777344 2593.133301,1931.966675 
	C2561.240967,1933.181152 2529.369629,1934.940430 2497.489258,1936.469971 
	C2496.159912,1936.533813 2494.816406,1936.583740 2493.510498,1936.816040 
	C2464.622559,1941.949951 2435.224609,1940.342773 2406.142578,1943.534668 
	C2379.090088,1946.503906 2351.755371,1946.901978 2324.545898,1948.444702 
	C2323.217529,1948.520020 2321.874512,1948.607544 2320.574463,1948.868530 
	C2294.392334,1954.125488 2267.605713,1951.940063 2241.210693,1955.561646 
	C2218.223877,1958.715454 2194.841064,1958.980957 2171.634521,1960.540039 
	C2170.307373,1960.629150 2168.993408,1960.896606 2167.668945,1961.042358 
	C2147.232910,1963.293579 2126.821289,1965.817261 2106.351562,1967.706421 
	C2085.847656,1969.598755 2065.273438,1970.717285 2044.752319,1972.437988 
	C2030.200073,1973.658203 2015.665649,1975.152222 2001.157104,1976.817871 
	C1982.048706,1979.011841 1962.993774,1981.677979 1943.877563,1983.795776 
	C1927.378662,1985.623535 1910.779297,1986.586426 1894.308105,1988.613403 
	C1866.660400,1992.015503 1839.092285,1996.059204 1811.466797,1999.649292 
	C1777.905151,2004.010742 1744.257080,2007.751343 1710.760254,2012.554932 
	C1676.606201,2017.452637 1642.560181,2023.133301 1608.530396,2028.849365 
	C1596.120850,2030.933838 1583.894165,2034.106567 1568.437378,2036.506104 
	C1548.875977,2040.338135 1529.261230,2043.918335 1509.763672,2048.051758 
	C1460.288208,2058.540771 1411.043213,2070.052734 1363.561768,2087.760498 
	C1346.149292,2094.254395 1329.003906,2101.784180 1312.511597,2110.335693 
	C1295.839722,2118.979980 1280.687378,2129.960938 1274.670532,2149.428711 
	C1273.916260,2151.869385 1271.936279,2153.967529 1270.378906,2156.118896 
	C1245.911011,2189.915039 1229.755127,2227.826904 1215.835938,2266.797607 
	C1187.571411,2345.932373 1168.596191,2427.540039 1152.349365,2509.797119 
	C1144.236694,2550.870850 1137.341553,2592.200195 1130.671387,2633.539307 
	C1123.896118,2675.530518 1117.879395,2717.647949 1111.912354,2759.764160 
	C1108.462280,2784.115479 1105.736816,2808.569824 1102.738770,2832.984619 
	C1099.255249,2861.351318 1095.459839,2889.686523 1092.476807,2918.106445 
	C1089.006104,2951.170654 1086.140991,2984.301025 1083.244263,3017.422852 
	C1079.189331,3063.787598 1075.343628,3110.170410 1071.424438,3156.547119 
	C1071.144287,3159.862549 1071.034180,3163.192139 1070.779297,3166.510010 
	C1068.590088,3195.010986 1066.385742,3223.510742 1062.631104,3253.251465 
	C1060.597412,3255.948486 1061.443604,3258.121582 1063.702393,3263.503174 
	C1062.317505,3286.662354 1060.919312,3309.820801 1059.560425,3332.981445 
	C1059.327148,3336.956299 1059.329590,3340.945068 1059.109619,3344.921143 
	C1056.841064,3385.951660 1054.549072,3426.981201 1050.511841,3469.579834 
	C1048.126831,3473.427490 1048.554443,3476.906250 1051.789795,3483.654297 
	C1050.611572,3513.112549 1049.433350,3542.570801 1046.602905,3573.644287 
	C1044.435059,3577.448730 1044.823486,3580.910645 1047.815796,3587.676025 
	C1046.616943,3629.125732 1045.418091,3670.575439 1042.498169,3713.892578 
z"/>
<path fill="#FDE092" opacity="1.000000" stroke="none" 
	d="
M1571.583984,2036.782959 
	C1583.894165,2034.106567 1596.120850,2030.933838 1608.530396,2028.849365 
	C1642.560181,2023.133301 1676.606201,2017.452637 1710.760254,2012.554932 
	C1744.257080,2007.751343 1777.905151,2004.010742 1811.466797,1999.649292 
	C1839.092285,1996.059204 1866.660400,1992.015503 1894.308105,1988.613403 
	C1910.779297,1986.586426 1927.378662,1985.623535 1943.877563,1983.795776 
	C1962.993774,1981.677979 1982.048706,1979.011841 2001.157104,1976.817871 
	C2015.665649,1975.152222 2030.200073,1973.658203 2044.752319,1972.437988 
	C2065.273438,1970.717285 2085.847656,1969.598755 2106.351562,1967.706421 
	C2126.821289,1965.817261 2147.232910,1963.293579 2167.668945,1961.042358 
	C2168.993408,1960.896606 2170.307373,1960.629150 2171.634521,1960.540039 
	C2194.841064,1958.980957 2218.223877,1958.715454 2241.210693,1955.561646 
	C2267.605713,1951.940063 2294.392334,1954.125488 2320.574463,1948.868530 
	C2321.874512,1948.607544 2323.217529,1948.520020 2324.545898,1948.444702 
	C2351.755371,1946.901978 2379.090088,1946.503906 2406.142578,1943.534668 
	C2435.224609,1940.342773 2464.622559,1941.949951 2493.510498,1936.816040 
	C2494.816406,1936.583740 2496.159912,1936.533813 2497.489258,1936.469971 
	C2529.369629,1934.940430 2561.240967,1933.181152 2593.133301,1931.966675 
	C2624.363770,1930.777344 2655.573730,1928.636353 2686.734131,1926.803955 
	C2710.635498,1925.398315 2734.668701,1925.931885 2758.411621,1923.414673 
	C2790.286133,1920.035278 2822.373535,1922.163940 2854.047363,1919.007812 
	C2883.340576,1916.088989 2912.637451,1917.953613 2941.747803,1915.421875 
	C2981.618652,1911.954468 3021.691162,1914.223999 3061.382812,1910.917847 
	C3096.019775,1908.032837 3130.560303,1909.208252 3165.108154,1907.676270 
	C3185.015381,1906.793579 3204.891357,1905.097534 3224.803711,1904.463501 
	C3244.783203,1903.827393 3264.796875,1904.327515 3284.783936,1903.850098 
	C3329.346924,1902.785889 3373.896484,1901.031982 3418.463867,1900.291504 
	C3462.444824,1899.560547 3506.531738,1901.464600 3550.412598,1899.165649 
	C3660.284912,1893.409424 3770.194336,1896.754883 3880.077393,1895.903931 
	C3990.045898,1895.052124 4100.026855,1895.743774 4210.001953,1895.864502 
	C4269.988281,1895.930298 4330.049805,1894.384644 4389.941406,1896.861450 
	C4465.843750,1900.000610 4541.833008,1897.373535 4617.594238,1901.113159 
	C4671.537598,1903.775757 4725.527832,1901.168457 4779.262695,1904.954712 
	C4821.864746,1907.956421 4864.554688,1905.488037 4906.926270,1908.996216 
	C4942.211426,1911.917480 4977.558594,1909.611938 5012.606445,1912.823853 
	C5047.193848,1915.993774 5081.891602,1913.838257 5116.265625,1916.982788 
	C5143.542969,1919.478149 5170.891602,1917.968750 5197.939941,1920.763672 
	C5226.517090,1923.716553 5255.208496,1922.135620 5283.598145,1924.888916 
	C5308.188965,1927.273682 5332.896484,1926.123779 5357.251953,1928.878296 
	C5380.516602,1931.509521 5403.875488,1930.160522 5426.915039,1932.789917 
	C5449.493164,1935.367188 5472.199707,1934.263916 5494.562500,1936.920044 
	C5513.159180,1939.129028 5532.012695,1937.710205 5550.189941,1940.787476 
	C5576.594238,1945.257324 5603.493652,1941.098633 5629.597168,1947.284668 
	C5630.240723,1947.437256 5630.916504,1947.481323 5631.580566,1947.521484 
	C5656.789062,1949.049805 5682.034180,1950.128174 5707.196289,1952.217773 
	C5732.981445,1954.359009 5758.913574,1954.977539 5784.518066,1959.154663 
	C5785.831055,1959.368774 5787.163574,1959.478516 5788.492188,1959.569580 
	C5811.030762,1961.113892 5833.598633,1962.321411 5856.101074,1964.277954 
	C5877.240723,1966.115845 5898.310547,1968.746826 5919.412598,1971.015259 
	C5922.060547,1971.299805 5924.712402,1971.565796 5927.369141,1971.733521 
	C5952.552734,1973.323364 5977.617188,1975.905151 6002.640625,1979.273438 
	C6021.051270,1981.751709 6039.690430,1982.494873 6058.205078,1984.246216 
	C6069.432617,1985.308105 6080.630371,1986.718384 6091.818848,1988.149658 
	C6108.920410,1990.337158 6125.998535,1992.712280 6143.094727,1994.943237 
	C6155.600586,1996.575195 6168.136230,1997.987061 6180.630371,1999.699707 
	C6218.092285,2004.835205 6255.570801,2009.863037 6292.985840,2015.324219 
	C6330.414062,2020.787476 6367.920410,2025.917358 6405.121582,2032.681641 
	C6441.035156,2039.211670 6476.574219,2047.777344 6512.330078,2055.198975 
	C6551.448242,2063.318848 6589.843750,2073.981445 6627.453613,2087.424316 
	C6648.145508,2094.820068 6668.945312,2102.221680 6686.839355,2115.416016 
	C6694.818359,2121.299072 6701.948730,2128.352295 6709.294434,2135.060303 
	C6711.222168,2136.820801 6713.478516,2139.084229 6713.946289,2141.441650 
	C6717.319336,2158.438477 6729.971191,2170.212646 6737.859863,2184.639160 
	C6751.966309,2210.433350 6762.753418,2237.617432 6772.807129,2265.137207 
	C6794.525391,2324.584473 6810.797852,2385.589355 6823.800781,2447.449463 
	C6832.675781,2489.669678 6840.651855,2532.085205 6848.532227,2574.505859 
	C6855.197754,2610.384033 6861.595215,2646.324951 6867.259277,2682.371826 
	C6871.068848,2706.618408 6873.170898,2731.128662 6876.450684,2755.464844 
	C6879.729004,2779.784424 6883.710938,2804.008545 6887.020996,2828.324219 
	C6888.990234,2842.792969 6890.217285,2857.361328 6891.849121,2871.876953 
	C6894.294434,2893.631104 6896.997070,2915.358398 6899.221191,2937.134521 
	C6901.109863,2955.634277 6902.291504,2974.206055 6904.122559,2992.712402 
	C6906.211914,3013.833984 6908.672363,3034.919189 6910.975586,3056.019775 
	C6911.120117,3057.343994 6911.366211,3058.660400 6911.452148,3059.987793 
	C6913.041992,3084.526123 6914.343262,3109.086914 6916.266113,3133.599121 
	C6918.237793,3158.733887 6920.812500,3183.821045 6923.125488,3208.929199 
	C6923.247559,3210.255371 6923.438477,3211.577637 6923.509277,3212.906250 
	C6925.028809,3241.451172 6926.510254,3269.998535 6928.052246,3298.542236 
	C6929.702148,3329.082764 6930.815430,3359.717529 6933.136719,3390.136230 
	C6935.218750,3417.414551 6933.834961,3444.766357 6936.690918,3471.815674 
	C6940.480469,3507.702393 6937.625977,3543.784180 6940.902344,3579.469238 
	C6945.302246,3627.394287 6941.252930,3675.417236 6944.857910,3723.145508 
	C6948.931152,3777.072754 6947.214355,3830.958496 6947.877441,3884.856445 
	C6948.541016,3938.836670 6948.168457,3992.830322 6948.120605,4046.818115 
	C6948.078613,4094.807129 6948.644043,4142.814941 6947.525391,4190.780762 
	C6946.003906,4256.001465 6943.247070,4321.192871 6943.529785,4386.450684 
	C6938.134277,4420.853027 6942.227051,4455.692383 6939.134766,4490.083496 
	C6936.562500,4518.677734 6937.942871,4547.367188 6935.125977,4575.747559 
	C6932.619141,4601.009766 6933.736816,4626.345703 6931.180176,4651.414551 
	C6928.945801,4673.325684 6929.575684,4695.340332 6927.159180,4717.065430 
	C6924.944336,4736.979980 6924.774414,4756.872070 6923.425293,4776.754395 
	C6921.854004,4799.910645 6918.967773,4822.978027 6916.659180,4846.084473 
	C6916.526855,4847.409180 6916.455078,4848.741211 6916.370605,4850.070312 
	C6914.817383,4874.610840 6913.654785,4899.184082 6911.593750,4923.681641 
	C6909.870605,4944.162109 6907.039062,4964.548828 6904.803711,4984.987793 
	C6903.215820,4999.505859 6903.392090,5014.080566 6900.824219,5028.652832 
	C6897.611328,5046.891602 6897.663574,5065.682617 6895.697754,5084.170898 
	C6893.875488,5101.308594 6891.224121,5118.356934 6888.991211,5135.451660 
	C6887.443359,5147.298828 6885.903320,5159.147949 6884.506348,5171.013184 
	C6881.556152,5196.060547 6879.052734,5221.166504 6875.705078,5246.160156 
	C6872.623047,5269.165039 6868.710449,5292.059082 6865.100586,5314.992188 
	C6860.869141,5341.868652 6856.928223,5368.797852 6852.210449,5395.588867 
	C6845.765625,5432.193848 6838.707520,5468.689941 6829.715332,5506.662109 
	C6799.051758,5508.111328 6770.584961,5508.111816 6742.118164,5508.179688 
	C6738.818848,5508.187500 6735.241211,5507.817383 6732.271484,5508.916504 
	C6721.990234,5512.721191 6711.377930,5511.705078 6700.835938,5511.910156 
	C6686.279297,5512.192871 6671.431641,5510.719238 6657.251953,5513.159180 
	C6644.703613,5515.318359 6632.343750,5515.677734 6619.834473,5515.979980 
	C6609.246094,5516.235352 6598.651855,5516.272461 6586.928223,5515.616211 
	C6582.056152,5510.145020 6578.289062,5505.486328 6574.581055,5500.780273 
	C6404.130371,5284.492188 6226.452148,5074.309570 6041.504395,4870.284180 
	C5868.652344,4679.601074 5690.174805,4494.345215 5505.392090,4315.175293 
	C5414.941406,4227.471680 5323.226562,4141.121094 5230.209473,4056.146729 
	C5225.102539,4051.481445 5218.553711,4047.908203 5214.780273,4040.675049 
	C5222.588379,4033.913086 5229.622559,4027.840576 5236.635742,4021.743896 
	C5254.744141,4006.002197 5272.934082,3990.352539 5290.933105,3974.485840 
	C5435.554199,3846.999268 5572.978516,3712.105225 5705.165527,3571.825684 
	C5872.113281,3394.657227 6030.035156,3209.660400 6183.094727,3020.458008 
	C6356.658203,2805.909668 6523.725098,2586.314941 6690.602051,2366.574707 
	C6692.616699,2363.921875 6694.712402,2361.314941 6696.523926,2358.526367 
	C6702.226074,2349.748779 6699.727539,2343.195557 6689.663574,2340.797607 
	C6686.451660,2340.032715 6683.068848,2339.650391 6679.765137,2339.657471 
	C6649.619629,2339.720703 6624.399414,2348.565186 6605.283691,2374.331543 
	C6557.635742,2438.555420 6508.773926,2501.881348 6460.229492,2565.437744 
	C6308.107910,2764.601318 6154.223145,2962.371338 5994.000488,3155.132324 
	C5857.188965,3319.729248 5715.989746,3480.425293 5567.537109,3634.660645 
	C5402.813477,3805.802002 5229.553223,3967.751953 5045.356445,4117.842773 
	C4951.255859,4194.519531 4853.855469,4266.727051 4751.400879,4331.957520 
	C4694.542480,4368.157715 4635.597656,4400.460449 4573.367188,4426.563965 
	C4506.569824,4454.583984 4437.472656,4473.734863 4364.990723,4478.737305 
	C4301.376465,4483.127930 4238.596191,4477.020996 4176.681152,4461.551758 
	C4104.534180,4443.525879 4036.302002,4415.581543 3970.511719,4381.291992 
	C3899.448486,4344.254395 3832.277588,4300.915039 3767.212158,4254.341797 
	C3706.522217,4210.900391 3646.472412,4166.561523 3586.321045,4122.371582 
	C3334.410156,3937.307617 3084.030762,3750.218994 2838.706055,3556.452393 
	C2572.368896,3346.089355 2312.416748,3128.236084 2064.008057,2896.814209 
	C1912.272583,2755.455078 1765.287354,2609.345215 1623.950439,2457.574707 
	C1618.075195,2451.265869 1612.753906,2444.440918 1607.420410,2436.067383 
	C1605.886230,2420.511230 1604.249756,2406.723389 1602.284424,2392.982422 
	C1600.411621,2379.888916 1597.824219,2366.889648 1596.226562,2353.766602 
	C1594.306274,2337.991943 1593.665405,2322.050537 1591.452271,2306.324707 
	C1588.129272,2282.714111 1584.408569,2259.175781 1583.859497,2235.278564 
	C1583.813843,2233.286133 1584.010010,2231.136963 1583.348511,2229.334229 
	C1579.098022,2217.751709 1580.244995,2205.696777 1579.924805,2193.764648 
	C1579.817627,2189.773438 1580.503540,2185.501953 1579.322510,2181.844482 
	C1574.910278,2168.180420 1576.425049,2154.158691 1575.954102,2140.253418 
	C1575.751221,2134.265625 1576.917358,2127.907959 1575.289917,2122.354736 
	C1571.063232,2107.931885 1572.379761,2093.314209 1572.071411,2078.739258 
	C1571.775757,2064.756836 1571.736084,2050.768555 1571.583984,2036.782959 
M6716.120605,3393.962891 
	C6716.448730,3411.914551 6715.628418,3429.940674 6719.610352,3447.654785 
	C6718.237305,3496.295654 6723.550293,3544.736572 6723.943359,3593.329346 
	C6724.310059,3638.580811 6725.951660,3683.808350 6727.126465,3729.036133 
	C6729.220215,3809.643555 6728.677246,3890.341797 6728.023926,3970.991943 
	C6727.366211,4052.222656 6730.244141,4133.474609 6724.813477,4214.697754 
	C6721.486328,4264.470215 6725.300293,4314.460938 6721.001465,4364.398926 
	C6717.757324,4402.090820 6720.152344,4440.180176 6716.637695,4478.052246 
	C6714.183594,4504.493164 6715.081543,4531.146484 6713.237305,4557.750000 
	C6710.988770,4590.193359 6709.874023,4622.816895 6708.175781,4655.359375 
	C6706.582031,4685.905273 6705.127441,4716.457520 6703.602539,4747.006836 
	C6703.536133,4748.336426 6703.483887,4749.680664 6703.250000,4750.986328 
	C6698.201660,4779.210938 6699.739746,4807.943848 6696.536621,4836.358887 
	C6693.561523,4862.743652 6693.124512,4889.415039 6691.556641,4915.959473 
	C6691.478027,4917.288086 6691.261230,4918.607422 6691.128906,4919.933594 
	C6688.830566,4943.041992 6686.271973,4966.127441 6684.314941,4989.264648 
	C6682.410645,5011.776367 6681.128906,5034.341309 6679.555176,5056.880859 
	C6679.462402,5058.206543 6679.158691,5059.516113 6679.019531,5060.840332 
	C6676.728516,5082.613281 6674.256836,5104.370117 6672.221191,5126.167480 
	C6670.368164,5146.009277 6670.253906,5166.107422 6666.976562,5185.690918 
	C6664.647461,5199.611328 6664.875977,5213.533203 6663.136719,5227.365234 
	C6660.985840,5244.473633 6658.437500,5261.533691 6656.369141,5278.651367 
	C6653.664062,5301.046875 6651.234375,5323.476074 6648.738770,5345.895996 
	C6647.196289,5359.751953 6645.676758,5373.611816 6644.312500,5387.485840 
	C6643.922363,5391.453125 6643.832031,5395.494629 6644.089844,5399.471191 
	C6644.657715,5408.211914 6650.057129,5414.628418 6658.958984,5415.493652 
	C6682.060059,5417.739258 6704.007324,5414.717285 6723.489258,5400.446777 
	C6730.505371,5395.307129 6734.461426,5388.934082 6735.443359,5380.646973 
	C6737.084473,5366.805176 6738.435547,5352.927734 6739.813477,5339.055664 
	C6741.454102,5322.533691 6742.882324,5305.989746 6744.604492,5289.476562 
	C6747.013184,5266.379395 6749.677246,5243.308594 6752.099609,5220.212891 
	C6753.762207,5204.361328 6755.007812,5188.464844 6756.786621,5172.627441 
	C6758.859863,5154.171387 6761.756348,5135.800293 6763.482422,5117.316406 
	C6765.519531,5095.490234 6766.687012,5073.583008 6768.230469,5051.710938 
	C6768.371094,5049.717773 6768.437500,5047.715820 6768.650391,5045.730469 
	C6770.985840,5023.963867 6773.770996,5002.234375 6775.580566,4980.424316 
	C6777.613281,4955.920898 6778.769043,4931.345215 6780.304688,4906.800781 
	C6780.387695,4905.470703 6780.401855,4904.133789 6780.536133,4902.809570 
	C6782.872559,4879.704590 6785.718750,4856.637695 6787.413086,4833.486328 
	C6788.770020,4814.939453 6788.793457,4796.377441 6791.112305,4777.791504 
	C6793.653320,4757.426758 6792.772949,4736.724609 6795.144043,4716.137207 
	C6797.720215,4693.765625 6796.567383,4671.064453 6799.180176,4648.479492 
	C6801.768066,4626.109375 6800.858398,4603.411621 6803.037109,4580.813477 
	C6805.709473,4553.086426 6804.568359,4525.065918 6807.176270,4497.153320 
	C6809.955078,4467.412598 6808.535156,4437.416504 6810.954102,4407.468262 
	C6814.377441,4365.077637 6812.288086,4322.399902 6815.042480,4279.793457 
	C6818.906250,4220.041992 6815.820801,4160.049316 6818.844238,4100.101562 
	C6821.963379,4038.260986 6820.314941,3976.143066 6819.639160,3914.158936 
	C6818.957031,3851.591309 6821.662109,3789.028320 6816.993652,3726.425537 
	C6814.175293,3688.624023 6816.472656,3650.463135 6815.727539,3612.478516 
	C6814.970703,3573.906250 6813.384277,3535.349121 6812.000000,3496.790771 
	C6811.117676,3472.216553 6811.054688,3447.682129 6809.093750,3423.054688 
	C6806.249023,3387.320801 6807.534180,3351.272705 6804.340820,3315.423340 
	C6802.455566,3294.266357 6803.278320,3273.010498 6800.969238,3251.712646 
	C6797.464844,3219.377197 6797.482422,3186.664551 6795.854980,3154.119629 
	C6794.494141,3126.897949 6792.921387,3099.686523 6791.439941,3072.470947 
	C6791.403809,3071.806152 6791.358398,3071.139404 6791.268066,3070.480713 
	C6786.927246,3038.852783 6785.881348,3006.966797 6783.770996,2975.163574 
	C6782.362793,2953.947998 6780.859863,2932.738525 6779.380371,2911.527588 
	C6779.288086,2910.201416 6778.978027,2908.891602 6778.846680,2907.566406 
	C6776.562500,2884.457520 6774.090820,2861.364746 6772.076172,2838.232422 
	C6770.231445,2817.051758 6770.041504,2795.653809 6766.895020,2774.686035 
	C6764.905273,2761.423340 6764.763184,2748.191650 6763.358398,2734.994385 
	C6761.321777,2715.866943 6758.430664,2696.831055 6756.371582,2677.705811 
	C6753.387695,2649.989502 6750.595703,2622.247559 6748.210449,2594.474854 
	C6747.469238,2585.846680 6743.736328,2580.880127 6735.391113,2579.198242 
	C6730.854004,2578.283691 6726.228516,2576.268066 6721.797363,2576.631836 
	C6703.013672,2578.174072 6685.067871,2582.960205 6669.338379,2593.840088 
	C6661.268555,2599.422119 6654.944824,2607.469727 6656.980957,2617.345459 
	C6659.706543,2630.563965 6658.878418,2643.898193 6660.743652,2657.007812 
	C6664.301270,2682.014404 6666.756836,2707.096191 6668.342285,2732.284424 
	C6668.509766,2734.941406 6668.770996,2737.594971 6669.079590,2740.239746 
	C6671.309082,2759.344727 6673.956543,2778.410889 6675.704590,2797.559570 
	C6677.697754,2819.391357 6678.895508,2841.296143 6680.447266,2863.168213 
	C6680.541016,2864.496582 6680.714844,2865.818848 6680.851562,2867.143799 
	C6683.163086,2889.581299 6685.921387,2911.983887 6687.668945,2934.465088 
	C6689.729980,2960.969727 6690.915039,2987.542480 6692.485840,3014.085449 
	C6692.563965,3015.414795 6692.679688,3016.742432 6692.808105,3018.068115 
	C6695.106445,3041.844238 6697.845215,3065.588379 6699.570312,3089.406006 
	C6700.914062,3107.952393 6700.934082,3126.507812 6703.119141,3145.105713 
	C6705.825195,3168.135498 6704.704590,3191.515869 6707.342773,3214.752441 
	C6709.884277,3237.138916 6709.061523,3259.821533 6711.151855,3282.422607 
	C6714.455078,3318.140625 6714.585938,3354.152344 6716.120605,3393.962891 
M4992.119141,3930.144531 
	C4968.083496,3949.064209 4943.874023,3967.767822 4920.048340,3986.948486 
	C4870.780762,4026.611328 4819.097168,4062.971680 4767.230469,4099.069336 
	C4710.946777,4138.241699 4653.273438,4175.344727 4594.326172,4210.331543 
	C4549.125977,4237.159668 4503.069336,4262.606445 4456.755371,4287.478027 
	C4420.964844,4306.697754 4384.186523,4324.077148 4347.843750,4342.268066 
	C4343.672852,4344.355957 4339.207031,4345.999512 4335.395508,4348.606934 
	C4332.910156,4350.306641 4329.813965,4353.388672 4329.832520,4355.830566 
	C4329.851074,4358.244629 4333.009766,4361.966309 4335.541992,4362.784180 
	C4343.708984,4365.418945 4352.289062,4366.735840 4360.589355,4369.002930 
	C4381.621582,4374.747559 4401.466309,4371.096191 4420.545898,4361.663574 
	C4452.757324,4345.738770 4484.860840,4329.597168 4517.049316,4313.627441 
	C4560.611328,4292.014648 4602.735352,4267.800781 4644.985840,4243.771484 
	C4692.459473,4216.771484 4738.701660,4187.800293 4784.253906,4157.772949 
	C4829.244629,4128.115234 4873.726562,4097.641602 4917.669922,4066.452881 
	C4951.833008,4042.205811 4985.284668,4016.894287 5018.217773,3990.994141 
	C5056.369629,3960.989746 5093.873535,3930.142090 5131.158203,3899.060303 
	C5160.267578,3874.793701 5188.741699,3849.756348 5217.247070,3824.775391 
	C5233.760254,3810.303955 5249.823730,3795.316406 5266.007812,3780.472656 
	C5294.446777,3754.389648 5323.254883,3728.688232 5351.108398,3701.992676 
	C5379.974121,3674.327637 5407.928223,3645.709717 5436.205566,3617.433594 
	C5451.757812,3601.882080 5467.511230,3586.509033 5482.544434,3570.465820 
	C5508.474609,3542.793945 5533.869629,3514.622070 5559.571289,3486.736572 
	C5580.324219,3464.219727 5601.201660,3441.817383 5622.013672,3419.355225 
	C5623.371094,3417.890137 5624.645020,3416.347900 5625.948242,3414.833496 
	C5639.829590,3398.709961 5653.637207,3382.522705 5667.610840,3366.478760 
	C5679.846680,3352.429443 5692.511230,3338.747314 5704.551758,3324.534424 
	C5722.600586,3303.227051 5740.269043,3281.597412 5758.100098,3260.105469 
	C5785.702148,3226.837158 5813.826660,3193.986816 5840.787109,3160.207275 
	C5884.343262,3105.635010 5927.471680,3050.712158 5970.144531,2995.446533 
	C6006.318848,2948.597656 6041.818848,2901.222656 6077.200684,2853.770020 
	C6111.393066,2807.912109 6145.194824,2761.760498 6178.911133,2715.550781 
	C6216.941406,2663.428955 6254.700684,2611.108643 6292.548340,2558.853516 
	C6315.571777,2527.066406 6338.628906,2495.302979 6361.502930,2463.408447 
	C6378.175293,2440.160645 6394.837891,2416.896973 6410.987305,2393.286377 
	C6419.557617,2380.756348 6416.877930,2374.341553 6402.529785,2369.874512 
	C6400.011230,2369.090820 6397.356934,2368.649658 6394.731934,2368.318848 
	C6385.514160,2367.157959 6376.260254,2365.046631 6367.060547,2365.239014 
	C6344.720703,2365.705566 6329.872559,2368.204590 6317.419434,2387.199463 
	C6289.717285,2429.454590 6259.505371,2470.077148 6229.934082,2511.089844 
	C6181.306152,2578.533936 6132.468262,2645.828125 6083.534668,2713.051270 
	C6056.132812,2750.694824 6028.554688,2788.213867 6000.703125,2825.525879 
	C5965.691895,2872.428711 5930.485352,2919.188232 5895.048828,2965.770752 
	C5867.265137,3002.293457 5839.371582,3038.744141 5810.857422,3074.695801 
	C5780.690918,3112.730713 5749.871094,3150.251221 5719.083008,3187.788330 
	C5683.240723,3231.487549 5647.484375,3275.266357 5611.009277,3318.435059 
	C5583.109863,3351.455322 5554.374512,3383.780273 5525.596191,3416.044189 
	C5499.021973,3445.836670 5472.174316,3475.397461 5444.934082,3504.581299 
	C5416.764648,3534.760010 5388.455566,3564.838379 5359.336914,3594.094238 
	C5323.637695,3629.962402 5288.885254,3666.789551 5250.812012,3700.296143 
	C5230.826172,3717.884277 5212.876465,3737.764160 5193.357910,3755.910889 
	C5172.905762,3774.926025 5151.633789,3793.057617 5130.799805,3811.664795 
	C5114.420898,3826.292725 5098.523438,3841.482422 5081.770996,3855.665527 
	C5052.846680,3880.152588 5023.425293,3904.051758 4992.119141,3930.144531 
M6400.103027,5113.970215 
	C6407.101562,5123.684082 6413.783691,5133.646484 6421.184082,5143.043945 
	C6428.984375,5152.949219 6437.381348,5162.392578 6445.716797,5171.862305 
	C6447.880859,5174.321777 6450.537598,5176.643555 6453.440918,5178.058105 
	C6455.572266,5179.096191 6459.040039,5179.510254 6460.872070,5178.433594 
	C6462.618164,5177.406738 6463.894531,5174.051270 6463.795898,5171.788086 
	C6463.657227,5168.606445 6462.640137,5165.132812 6460.974609,5162.410156 
	C6455.782715,5153.924805 6450.467285,5145.469238 6444.563477,5137.471680 
	C6407.840820,5087.730469 6371.200195,5037.924316 6334.011719,4988.532227 
	C6311.622559,4958.796875 6288.502441,4929.603027 6265.314941,4900.480957 
	C6246.682617,4877.078613 6227.634766,4853.999023 6208.437500,4831.055664 
	C6190.942383,4810.147461 6173.007324,4789.606445 6155.249023,4768.918457 
	C6132.733398,4742.687500 6110.432617,4716.266113 6087.608398,4690.306641 
	C6064.770508,4664.332520 6041.645508,4638.601074 6018.195801,4613.178711 
	C5994.726562,4587.734375 5971.125000,4562.386230 5946.836914,4537.729004 
	C5879.515137,4469.382324 5812.130859,4401.087891 5741.609375,4335.989746 
	C5720.579590,4316.577637 5699.681152,4297.023926 5678.722168,4277.535156 
	C5678.233887,4277.082031 5677.758301,4276.613770 5677.254883,4276.177734 
	C5650.108887,4252.680664 5622.977051,4229.166504 5595.806152,4205.697266 
	C5564.605469,4178.747559 5533.432617,4151.764160 5502.070801,4125.002930 
	C5498.103027,4121.617676 5493.184570,4119.239746 5488.441406,4116.940918 
	C5487.067871,4116.275391 5484.287109,4116.954590 5483.035156,4118.038086 
	C5481.795410,4119.111328 5480.830078,4121.686523 5481.222168,4123.227051 
	C5482.194824,4127.049805 5483.792969,4130.763184 5485.524902,4134.333984 
	C5495.649414,4155.206055 5511.877930,4171.036621 5529.165039,4185.758789 
	C5548.391113,4202.132324 5568.480469,4217.494629 5587.634766,4233.948730 
	C5619.918945,4261.681641 5652.076660,4289.578613 5683.705566,4318.052734 
	C5718.320801,4349.216797 5753.188965,4380.188477 5786.330078,4412.882812 
	C5856.988770,4482.589355 5928.607910,4551.344727 5995.764160,4624.568848 
	C6024.995117,4656.440430 6054.887207,4687.694824 6083.215820,4720.402832 
	C6105.423340,4746.042969 6128.208496,4771.182617 6150.629883,4796.638672 
	C6159.860352,4807.117676 6169.000488,4817.687500 6177.848633,4828.488281 
	C6199.330566,4854.711914 6220.714844,4881.017090 6241.955078,4907.436523 
	C6264.866699,4935.933594 6288.090332,4964.202148 6310.236816,4993.286621 
	C6340.042480,5032.429199 6368.947266,5072.257812 6400.103027,5113.970215 
z"/>
<path fill="#FED150" opacity="1.000000" stroke="none" 
	d="
M6588.060547,5516.406250 
	C6598.651855,5516.272461 6609.246094,5516.235352 6619.834473,5515.979980 
	C6632.343750,5515.677734 6644.703613,5515.318359 6657.251953,5513.159180 
	C6671.431641,5510.719238 6686.279297,5512.192871 6700.835938,5511.910156 
	C6711.377930,5511.705078 6721.990234,5512.721191 6732.271484,5508.916504 
	C6735.241211,5507.817383 6738.818848,5508.187500 6742.118164,5508.179688 
	C6770.584961,5508.111816 6799.051758,5508.111328 6829.308594,5508.270508 
	C6817.942871,5575.783203 6801.092285,5642.171875 6779.443848,5707.283203 
	C6770.197754,5735.094238 6759.319824,5762.280273 6746.429688,5788.685547 
	C6736.144043,5809.756836 6723.567871,5829.326172 6709.715332,5848.074219 
	C6697.010742,5865.268555 6678.333008,5874.683594 6659.477051,5883.225586 
	C6628.468262,5897.272949 6595.974121,5907.163574 6563.164062,5916.025879 
	C6501.437012,5932.697754 6438.799316,5945.216309 6375.767578,5955.547363 
	C6319.986328,5964.690918 6264.000977,5972.657227 6207.994629,5980.333984 
	C6163.849609,5986.385254 6119.562500,5991.430176 6075.290039,5996.502930 
	C6037.623047,6000.818359 5999.889648,6004.554199 5962.182129,6008.512207 
	C5928.444336,6012.053711 5894.723145,6015.764648 5860.955078,6018.988281 
	C5839.093262,6021.075195 5817.151855,6022.308105 5795.262695,6024.130371 
	C5770.074219,6026.227539 5744.904297,6028.556152 5719.726074,6030.776855 
	C5717.071289,6031.011230 5714.414551,6031.229980 5711.754883,6031.395996 
	C5683.848633,6033.139160 5655.936523,6034.786133 5628.036621,6036.625000 
	C5588.860352,6039.206543 5549.701660,6042.069336 5510.519531,6044.553711 
	C5466.018555,6047.375488 5421.481445,6049.634766 5376.993652,6052.645508 
	C5323.186035,6056.286133 5269.360840,6059.325684 5215.444824,6060.821777 
	C5199.495605,6061.264160 5183.575684,6062.750977 5165.163086,6063.005859 
	C5159.799316,6060.425293 5157.718262,6061.571289 5156.000000,6064.059570 
	C5129.221680,6065.283691 5102.443359,6066.507812 5073.002930,6066.893066 
	C5066.330078,6063.882324 5062.870605,6064.504395 5059.998047,6068.096680 
	C5030.560547,6069.318848 5001.123047,6070.540527 4969.015137,6070.918945 
	C4962.331543,6067.862305 4958.875488,6068.500000 4955.998047,6072.097656 
	C4919.903809,6073.352539 4883.810059,6074.607422 4845.046875,6074.926758 
	C4838.342285,6071.677246 4834.871582,6072.287598 4832.000000,6075.996094 
	C4789.242188,6077.306641 4746.484375,6078.617188 4701.059082,6078.981445 
	C4694.357910,6075.677246 4690.886230,6076.289551 4688.000000,6080.000000 
	C4597.518066,6083.541504 4506.939941,6082.669434 4416.461914,6085.233398 
	C4269.995605,6089.382812 4123.528320,6087.710449 3977.064209,6088.286133 
	C3857.866455,6088.754883 3738.660889,6087.802734 3619.461670,6087.001465 
	C3571.553223,6086.679688 3523.653320,6085.079102 3473.077148,6083.183594 
	C3466.521484,6080.003418 3463.047607,6080.476074 3459.999268,6083.839355 
	C3434.252197,6083.560547 3408.499268,6083.536621 3382.759521,6082.936035 
	C3353.749512,6082.259277 3324.751465,6081.063477 3293.079590,6079.218750 
	C3286.537109,6076.016113 3283.064209,6076.495605 3279.999268,6079.831055 
	C3219.737305,6078.261719 3159.471924,6076.805664 3099.215088,6075.058105 
	C3079.370605,6074.482910 3059.548096,6073.151855 3037.077637,6071.239258 
	C3030.557129,6067.920898 3027.066406,6068.313965 3024.008789,6071.781250 
	C2994.566406,6070.586426 2965.123779,6069.391602 2933.066406,6067.263184 
	C2926.577637,6063.920898 2923.086426,6064.316895 2920.009521,6067.752930 
	C2893.224121,6066.560059 2866.438477,6065.367188 2837.217041,6063.326172 
	C2832.040527,6060.457031 2829.870850,6061.349609 2828.007080,6063.805176 
	C2789.706787,6062.218750 2751.401367,6060.738281 2713.108643,6058.985352 
	C2700.584717,6058.411621 2688.093262,6057.129395 2673.189209,6055.315430 
	C2668.075684,6052.448730 2665.900146,6053.325684 2664.010010,6055.728516 
	C2643.853516,6054.545898 2623.697021,6053.363281 2601.164307,6051.332031 
	C2596.082764,6048.465332 2593.902100,6049.309082 2592.010010,6051.725586 
	C2573.184570,6050.553711 2554.358887,6049.381348 2533.163574,6047.350098 
	C2528.086914,6044.460938 2525.905029,6045.308594 2524.010010,6047.728516 
	C2491.490723,6045.467285 2458.971680,6043.201660 2426.451660,6040.952637 
	C2423.128174,6040.722656 2419.796631,6040.609863 2416.470459,6040.412598 
	C2387.895508,6038.713867 2359.304932,6037.239258 2330.750732,6035.242676 
	C2296.234375,6032.830078 2261.726562,6030.235352 2227.256592,6027.238281 
	C2190.147217,6024.011230 2153.095459,6020.127441 2116.001221,6016.718750 
	C2081.545410,6013.551758 2047.035278,6010.947754 2012.607544,6007.509766 
	C1981.506226,6004.403809 1950.488525,6000.465820 1919.425781,5996.967285 
	C1891.658325,5993.840332 1863.861084,5990.969727 1836.111816,5987.691406 
	C1812.990356,5984.958984 1789.897217,5981.959961 1766.831787,5978.787598 
	C1741.795776,5975.343750 1716.789917,5971.670898 1691.799438,5967.908203 
	C1602.294556,5954.433594 1513.216309,5938.729004 1425.655273,5915.441406 
	C1394.107910,5907.050781 1363.222656,5896.641602 1333.108398,5883.870605 
	C1305.283813,5872.070312 1283.121826,5853.941406 1266.147095,5828.951172 
	C1248.425171,5802.861328 1235.450195,5774.469238 1223.827148,5745.343262 
	C1201.804688,5690.158691 1186.434082,5632.938965 1172.732910,5575.287598 
	C1157.964600,5513.145996 1145.408325,5450.523438 1135.512695,5387.396484 
	C1127.890747,5338.774414 1119.807861,5290.217285 1112.889038,5241.495117 
	C1107.652954,5204.622559 1103.937012,5167.533691 1099.531372,5130.543457 
	C1095.991821,5100.823730 1092.192871,5071.132324 1088.966431,5041.378906 
	C1086.814697,5021.534668 1085.602051,5001.590820 1083.720947,4981.714355 
	C1081.778320,4961.188965 1079.404297,4940.704102 1077.463013,4920.178223 
	C1075.708618,4901.628418 1074.071167,4883.062500 1072.763794,4864.476562 
	C1070.848511,4837.250977 1069.448120,4809.989746 1067.504883,4782.766113 
	C1065.562988,4755.562500 1063.221558,4728.387207 1061.061646,4701.199219 
	C1060.956299,4699.871094 1060.906860,4698.538574 1060.843750,4697.207031 
	C1059.138306,4661.292480 1057.492065,4625.375488 1055.707886,4589.464844 
	C1054.683960,4568.858398 1053.437012,4548.262695 1053.123657,4524.997559 
	C1056.130371,4518.319824 1055.494751,4514.865234 1051.902954,4511.998047 
	C1050.631714,4481.230469 1049.360596,4450.462891 1048.937378,4417.207031 
	C1051.765625,4411.799316 1050.553955,4409.723633 1048.008911,4408.000000 
	C1046.709351,4366.573242 1045.409790,4325.146484 1045.124756,4280.851562 
	C1048.236450,4271.646973 1049.386108,4265.425293 1043.962769,4259.998535 
	C1043.868774,4255.346191 1043.819214,4250.692383 1043.674561,4246.041504 
	C1039.563477,4113.812500 1039.932495,3981.548828 1040.989380,3849.287354 
	C1041.302612,3810.101807 1042.859375,3770.926270 1044.882568,3728.988281 
	C1048.401367,3721.130371 1048.713257,3716.290283 1044.219360,3712.025146 
	C1045.418091,3670.575439 1046.616943,3629.125732 1048.817627,3585.071045 
	C1052.293579,3578.538086 1051.875854,3575.043457 1048.255127,3572.029053 
	C1049.433350,3542.570801 1050.611572,3513.112549 1052.728516,3481.055420 
	C1056.095337,3474.585449 1055.660278,3471.099121 1052.263428,3468.010986 
	C1054.549072,3426.981201 1056.841064,3385.951660 1059.109619,3344.921143 
	C1059.329590,3340.945068 1059.327148,3336.956299 1059.560425,3332.981445 
	C1060.919312,3309.820801 1062.317505,3286.662354 1064.604614,3261.153809 
	C1067.588989,3256.049316 1066.640747,3253.883789 1064.185913,3252.010986 
	C1066.385742,3223.510742 1068.590088,3195.010986 1070.779297,3166.510010 
	C1071.034180,3163.192139 1071.144287,3159.862549 1071.424438,3156.547119 
	C1075.343628,3110.170410 1079.189331,3063.787598 1083.244263,3017.422852 
	C1086.140991,2984.301025 1089.006104,2951.170654 1092.476807,2918.106445 
	C1095.459839,2889.686523 1099.255249,2861.351318 1102.738770,2832.984619 
	C1105.736816,2808.569824 1108.462280,2784.115479 1111.912354,2759.764160 
	C1117.879395,2717.647949 1123.896118,2675.530518 1130.671387,2633.539307 
	C1137.341553,2592.200195 1144.236694,2550.870850 1152.349365,2509.797119 
	C1168.596191,2427.540039 1187.571411,2345.932373 1215.835938,2266.797607 
	C1229.755127,2227.826904 1245.911011,2189.915039 1270.378906,2156.118896 
	C1271.936279,2153.967529 1273.916260,2151.869385 1274.670532,2149.428711 
	C1280.687378,2129.960938 1295.839722,2118.979980 1312.511597,2110.335693 
	C1329.003906,2101.784180 1346.149292,2094.254395 1363.561768,2087.760498 
	C1411.043213,2070.052734 1460.288208,2058.540771 1509.763672,2048.051758 
	C1529.261230,2043.918335 1548.875977,2040.338135 1570.010742,2036.644531 
	C1571.736084,2050.768555 1571.775757,2064.756836 1572.071411,2078.739258 
	C1572.379761,2093.314209 1571.063232,2107.931885 1575.289917,2122.354736 
	C1576.917358,2127.907959 1575.751221,2134.265625 1575.954102,2140.253418 
	C1576.425049,2154.158691 1574.910278,2168.180420 1579.322510,2181.844482 
	C1580.503540,2185.501953 1579.817627,2189.773438 1579.924805,2193.764648 
	C1580.244995,2205.696777 1579.098022,2217.751709 1583.348511,2229.334229 
	C1584.010010,2231.136963 1583.813843,2233.286133 1583.859497,2235.278564 
	C1584.408569,2259.175781 1588.129272,2282.714111 1591.452271,2306.324707 
	C1593.665405,2322.050537 1594.306274,2337.991943 1596.226562,2353.766602 
	C1597.824219,2366.889648 1600.411621,2379.888916 1602.284424,2392.982422 
	C1604.249756,2406.723389 1605.886230,2420.511230 1606.231934,2435.337158 
	C1560.219482,2387.038818 1515.475952,2337.829834 1471.136108,2288.259766 
	C1450.298584,2264.964111 1430.129761,2241.064941 1409.896729,2217.236572 
	C1404.425781,2210.793701 1398.219727,2206.073730 1389.647217,2206.208496 
	C1365.649658,2206.585449 1343.739380,2213.515137 1325.225464,2229.123779 
	C1316.660889,2236.344238 1316.777466,2242.131836 1324.024902,2251.470215 
	C1325.654175,2253.569580 1327.470581,2255.524170 1329.200439,2257.545654 
	C1425.669800,2370.275879 1525.478760,2479.968994 1628.490723,2586.752197 
	C1632.591064,2591.002686 1636.152344,2595.772705 1640.026123,2601.940430 
	C1644.940308,2626.900879 1649.094360,2650.394043 1654.791992,2673.506348 
	C1666.538940,2721.158691 1679.524536,2768.505859 1691.235718,2816.166748 
	C1705.667847,2874.901855 1725.022827,2932.142334 1742.970581,2989.806641 
	C1750.469604,3013.901123 1759.266113,3037.601074 1767.816162,3061.356934 
	C1783.788574,3105.734131 1799.646729,3150.158447 1816.256104,3194.298340 
	C1827.716797,3224.754883 1840.080444,3254.882324 1852.566772,3284.938477 
	C1862.253906,3308.256592 1872.681885,3331.268799 1882.910889,3354.359375 
	C1898.252563,3388.991455 1913.339844,3423.743652 1929.245117,3458.116211 
	C1939.868286,3481.073242 1951.543823,3503.552246 1963.066040,3526.082764 
	C1987.915771,3574.673096 2012.162842,3623.597168 2038.187134,3671.553955 
	C2060.362793,3712.418945 2084.188232,3752.417725 2108.177246,3792.261963 
	C2135.934570,3838.365967 2163.899170,3884.381836 2193.214355,3929.499756 
	C2218.180420,3967.925049 2245.108887,4005.078857 2271.314209,4042.693848 
	C2304.712891,4090.634033 2340.031250,4137.112305 2376.213379,4183.006836 
	C2409.089600,4224.708008 2442.851562,4265.653809 2476.883545,4306.381348 
	C2496.886475,4330.319824 2517.651611,4353.667969 2538.939697,4376.474121 
	C2570.259033,4410.026855 2602.302246,4442.905762 2634.144531,4475.968262 
	C2643.847900,4486.043945 2653.989502,4495.696777 2663.751465,4505.717285 
	C2666.967773,4509.018555 2669.621094,4512.869141 2671.962402,4517.692871 
	C2612.498535,4570.988281 2553.382812,4622.811035 2494.753174,4675.178223 
	C2350.131592,4804.352051 2208.401123,4936.653320 2069.077393,5071.509277 
	C1896.705444,5238.354004 1727.641968,5408.495117 1563.121338,5583.112793 
	C1518.802368,5630.151367 1474.802734,5677.491211 1430.621826,5724.659668 
	C1424.216187,5731.499023 1417.976807,5738.418457 1414.781372,5747.454102 
	C1410.343384,5760.002930 1409.257812,5772.468750 1418.652344,5783.256348 
	C1427.706665,5793.653320 1439.738525,5796.916504 1453.089478,5794.384766 
	C1464.391235,5792.241699 1474.733521,5787.697266 1483.055420,5779.435059 
	C1487.781738,5774.743164 1492.326050,5769.866699 1496.910278,5765.033203 
	C1593.200439,5663.523438 1688.537354,5561.087891 1785.967041,5460.684082 
	C1987.849365,5252.638184 2195.410400,5050.354980 2409.264160,4854.606445 
	C2497.723145,4773.637207 2587.265625,4693.849609 2676.495605,4613.725098 
	C2694.302490,4597.735840 2712.929199,4582.659668 2731.869141,4568.392090 
	C2751.377686,4592.291504 2776.083496,4608.680664 2796.561035,4629.623535 
	C2806.281250,4639.564453 2817.212402,4648.368164 2827.953369,4657.253418 
	C2847.379883,4673.323730 2867.051270,4689.098633 2886.664551,4704.942383 
	C2914.026611,4727.045410 2941.150879,4749.455078 2968.873535,4771.097656 
	C3024.923096,4814.854980 3082.405273,4856.671875 3141.771729,4895.835449 
	C3178.949951,4920.361816 3216.002441,4945.121094 3253.881836,4968.528320 
	C3287.799072,4989.487793 3322.528809,5009.173828 3357.340088,5028.635254 
	C3400.297852,5052.650879 3443.536865,5076.180664 3487.007324,5099.255371 
	C3505.196533,5108.911621 3524.537598,5116.375000 3542.931885,5125.672363 
	C3593.432129,5151.198242 3645.482666,5173.211914 3697.673340,5194.931152 
	C3757.211426,5219.708008 3817.525391,5242.486816 3878.681885,5262.891113 
	C3924.046387,5278.026367 3969.857178,5291.845215 4015.612305,5305.781250 
	C4039.729980,5313.126953 4064.067627,5319.795898 4088.457031,5326.194824 
	C4136.590820,5338.821777 4184.658691,5351.773926 4233.077148,5363.223633 
	C4275.617188,5373.283691 4318.577637,5381.582031 4361.395508,5390.451172 
	C4384.099121,5395.152832 4406.848633,5399.667480 4429.660156,5403.808105 
	C4457.017578,5408.773926 4484.466309,5413.232910 4511.870117,5417.946289 
	C4530.791016,5421.200684 4549.649902,5424.858398 4568.630859,5427.710449 
	C4590.893066,5431.056152 4613.274414,5433.598633 4635.571777,5436.719238 
	C4661.782227,5440.387207 4687.948242,5444.371094 4714.152832,5448.080566 
	C4727.266602,5449.936523 4740.439453,5451.369141 4753.556152,5453.204102 
	C4768.624023,5455.311523 4783.615234,5458.030273 4798.720215,5459.789062 
	C4815.170898,5461.705078 4831.867188,5461.903320 4848.164551,5464.608887 
	C4859.357910,5466.467773 4870.449707,5467.618164 4881.732910,5468.358887 
	C4894.932129,5469.225098 4908.043945,5471.417969 4921.192383,5473.052246 
	C4939.573730,5475.336914 4957.919434,5477.977539 4976.343262,5479.836914 
	C4995.470215,5481.767578 5014.673828,5482.937500 5033.840332,5484.477051 
	C5035.154785,5484.583008 5036.432617,5485.100586 5037.748047,5485.249512 
	C5057.473633,5487.495117 5077.170898,5490.067383 5096.939941,5491.837402 
	C5118.075684,5493.728516 5139.279785,5494.851562 5160.452637,5496.330566 
	C5161.778320,5496.422852 5163.210449,5496.410156 5164.393555,5496.914551 
	C5173.298340,5500.717285 5182.709473,5499.783203 5191.997559,5500.044434 
	C5196.657715,5500.174805 5201.628418,5499.343262 5205.916992,5500.682617 
	C5218.296875,5504.549316 5230.926270,5503.785645 5243.532715,5504.102539 
	C5247.522949,5504.202637 5251.825684,5503.609863 5255.436523,5504.885742 
	C5266.470703,5508.787598 5277.807617,5507.687012 5289.073730,5508.026367 
	C5294.400879,5508.187012 5300.062500,5507.125977 5304.998535,5508.574707 
	C5320.045410,5512.988770 5335.364746,5511.601562 5350.610840,5512.107910 
	C5355.263672,5512.263184 5360.267090,5511.611816 5364.487305,5513.098145 
	C5374.264160,5516.542480 5384.220215,5515.683594 5394.161133,5515.932129 
	C5404.815918,5516.197754 5415.854004,5514.654297 5426.038574,5516.948242 
	C5439.961914,5520.083496 5453.784668,5519.604980 5467.700684,5519.995117 
	C5475.693359,5520.219727 5484.048340,5518.730957 5491.621094,5520.566406 
	C5512.721680,5525.680664 5534.032227,5523.218262 5555.239746,5524.061523 
	C5563.223145,5524.379883 5571.604980,5523.029297 5579.113770,5525.030762 
	C5591.008789,5528.201660 5602.860352,5527.731934 5614.792480,5527.875977 
	C5632.784668,5528.092285 5650.779297,5528.041016 5668.772949,5528.169434 
	C5673.431152,5528.202637 5678.415039,5527.467285 5682.683105,5528.841797 
	C5695.088867,5532.834961 5707.738281,5531.770508 5720.334473,5531.850586 
	C5753.655273,5532.063965 5786.978516,5532.017090 5820.299316,5532.222656 
	C5826.259277,5532.259277 5832.222168,5532.919434 5838.169922,5533.451172 
	C5846.077148,5534.158203 5853.969238,5535.705078 5861.869629,5535.714844 
	C5981.829102,5535.862305 6101.789062,5535.821777 6221.748535,5535.802734 
	C6227.075684,5535.801758 6232.736816,5536.722168 6237.667480,5535.267090 
	C6252.085449,5531.013672 6266.728027,5532.322266 6281.313477,5532.181641 
	C6307.303223,5531.930664 6333.295410,5531.984863 6359.286621,5531.842285 
	C6364.609375,5531.812988 6370.292480,5532.610352 6375.179688,5531.051270 
	C6386.959961,5527.294922 6398.913086,5528.358887 6410.842285,5528.079102 
	C6424.160645,5527.766602 6437.801270,5529.294922 6450.711914,5526.875977 
	C6463.345215,5524.509277 6475.791992,5524.401855 6488.381836,5524.020020 
	C6497.039062,5523.757324 6505.698242,5523.562012 6515.403320,5524.060547 
	C6552.825684,5571.601562 6589.402832,5618.264648 6625.466797,5665.321289 
	C6637.838379,5681.462891 6653.618164,5691.426270 6673.073242,5696.028809 
	C6682.123047,5698.169434 6691.167480,5700.464844 6700.682617,5698.341309 
	C6718.193359,5694.432617 6719.100586,5686.266113 6709.492676,5674.942871 
	C6706.911133,5671.901367 6704.709473,5668.540039 6702.276367,5665.369141 
	C6684.025391,5641.584961 6665.746582,5617.821777 6647.504395,5594.030273 
	C6627.673828,5568.167480 6607.873535,5542.282227 6588.060547,5516.406250 
z"/>
<path fill="#FDE092" opacity="1.000000" stroke="none" 
	d="
M1043.111084,4261.050781 
	C1049.386108,4265.425293 1048.236450,4271.646973 1045.180664,4278.977539 
	C1039.450439,4274.467285 1040.383545,4268.336914 1043.111084,4261.050781 
z"/>
<path fill="#FEE290" opacity="1.000000" stroke="none" 
	d="
M1043.358765,3712.958984 
	C1048.713257,3716.290283 1048.401367,3721.130371 1044.963135,3727.115234 
	C1040.053589,3723.666748 1040.299561,3718.884033 1043.358765,3712.958984 
z"/>
<path fill="#FEE290" opacity="1.000000" stroke="none" 
	d="
M1047.428955,3572.836670 
	C1051.875854,3575.043457 1052.293579,3578.538086 1048.904785,3583.233398 
	C1044.823486,3580.910645 1044.435059,3577.448730 1047.428955,3572.836670 
z"/>
<path fill="#FEE8A9" opacity="1.000000" stroke="none" 
	d="
M3460.788086,6084.722168 
	C3463.047607,6080.476074 3466.521484,6080.003418 3471.202393,6083.166992 
	C3468.969238,6087.484375 3465.494873,6088.009766 3460.788086,6084.722168 
z"/>
<path fill="#FEE290" opacity="1.000000" stroke="none" 
	d="
M4688.839844,6080.791016 
	C4690.886230,6076.289551 4694.357910,6075.677246 4699.184570,6078.928223 
	C4697.004395,6083.096191 4693.557129,6083.597168 4688.839844,6080.791016 
z"/>
<path fill="#FEE8A9" opacity="1.000000" stroke="none" 
	d="
M3280.786133,6080.714844 
	C3283.064209,6076.495605 3286.537109,6076.016113 3291.205811,6079.208008 
	C3288.955322,6083.520996 3285.474854,6083.999023 3280.786133,6080.714844 
z"/>
<path fill="#FEE290" opacity="1.000000" stroke="none" 
	d="
M4832.842773,6076.785156 
	C4834.871582,6072.287598 4838.342285,6071.677246 4843.173828,6074.876953 
	C4841.018555,6079.074219 4837.572754,6079.580078 4832.842773,6076.785156 
z"/>
<path fill="#FEE6A0" opacity="1.000000" stroke="none" 
	d="
M4956.830566,6072.923340 
	C4958.875488,6068.500000 4962.331543,6067.862305 4967.166016,6070.922852 
	C4965.093262,6075.284668 4961.639160,6075.879395 4956.830566,6072.923340 
z"/>
<path fill="#FEE6A0" opacity="1.000000" stroke="none" 
	d="
M3024.797363,6072.651367 
	C3027.066406,6068.313965 3030.557129,6067.920898 3035.221680,6071.199219 
	C3032.923584,6075.415039 3029.447510,6075.868164 3024.797363,6072.651367 
z"/>
<path fill="#FEE6A0" opacity="1.000000" stroke="none" 
	d="
M5060.833984,6068.919922 
	C5062.870605,6064.504395 5066.330078,6063.882324 5071.164062,6066.898438 
	C5069.103027,6071.273926 5065.651855,6071.875000 5060.833984,6068.919922 
z"/>
<path fill="#FEE6A0" opacity="1.000000" stroke="none" 
	d="
M2920.797607,6068.625000 
	C2923.086426,6064.316895 2926.577637,6063.920898 2931.228027,6067.222168 
	C2928.911621,6071.439453 2925.435303,6071.875488 2920.797607,6068.625000 
z"/>
<path fill="#FEE6A0" opacity="1.000000" stroke="none" 
	d="
M1051.080078,4512.833984 
	C1055.494751,4514.865234 1056.130371,4518.319824 1053.115967,4523.158203 
	C1048.741821,4521.105469 1048.130615,4517.655762 1051.080078,4512.833984 
z"/>
<path fill="#FEE6A0" opacity="1.000000" stroke="none" 
	d="
M1051.387695,3468.795410 
	C1055.660278,3471.099121 1056.095337,3474.585449 1052.773193,3479.230713 
	C1048.554443,3476.906250 1048.126831,3473.427490 1051.387695,3468.795410 
z"/>
<path fill="#FEE6A0" opacity="1.000000" stroke="none" 
	d="
M2828.625000,6064.591797 
	C2829.870850,6061.349609 2832.040527,6060.457031 2835.392334,6063.287109 
	C2834.135986,6066.555664 2831.972168,6067.455566 2828.625000,6064.591797 
z"/>
<path fill="#FEE6A0" opacity="1.000000" stroke="none" 
	d="
M5156.656250,6064.812012 
	C5157.718262,6061.571289 5159.799316,6060.425293 5163.336914,6063.019531 
	C5162.272461,6066.287598 5160.206055,6067.478027 5156.656250,6064.812012 
z"/>
<path fill="#FEE6A0" opacity="1.000000" stroke="none" 
	d="
M2664.623047,6056.523438 
	C2665.900146,6053.325684 2668.075684,6052.448730 2671.397217,6055.267578 
	C2670.128662,6058.563965 2667.955322,6059.425781 2664.623047,6056.523438 
z"/>
<path fill="#FEE6A0" opacity="1.000000" stroke="none" 
	d="
M2592.620850,6052.521484 
	C2593.902100,6049.309082 2596.082764,6048.465332 2599.395996,6051.290039 
	C2598.117920,6054.563477 2595.943115,6055.428223 2592.620850,6052.521484 
z"/>
<path fill="#FEE6A0" opacity="1.000000" stroke="none" 
	d="
M2524.620850,6048.522949 
	C2525.905029,6045.308594 2528.086914,6044.460938 2531.399170,6047.300781 
	C2530.112305,6050.563965 2527.936523,6051.425781 2524.620850,6048.522949 
z"/>
<path fill="#FDE092" opacity="1.000000" stroke="none" 
	d="
M1047.287964,4408.663086 
	C1050.553955,4409.723633 1051.765625,4411.799316 1048.979980,4415.349609 
	C1045.757446,4414.216309 1044.790161,4412.102539 1047.287964,4408.663086 
z"/>
<path fill="#FEE49B" opacity="1.000000" stroke="none" 
	d="
M1063.408447,3252.631348 
	C1066.640747,3253.883789 1067.588989,3256.049316 1064.683838,3259.406250 
	C1061.443604,3258.121582 1060.597412,3255.948486 1063.408447,3252.631348 
z"/>
<path fill="#5D2313" opacity="1.000000" stroke="none" 
	d="
M6586.928223,5515.616211 
	C6607.873535,5542.282227 6627.673828,5568.167480 6647.504395,5594.030273 
	C6665.746582,5617.821777 6684.025391,5641.584961 6702.276367,5665.369141 
	C6704.709473,5668.540039 6706.911133,5671.901367 6709.492676,5674.942871 
	C6719.100586,5686.266113 6718.193359,5694.432617 6700.682617,5698.341309 
	C6691.167480,5700.464844 6682.123047,5698.169434 6673.073242,5696.028809 
	C6653.618164,5691.426270 6637.838379,5681.462891 6625.466797,5665.321289 
	C6589.402832,5618.264648 6552.825684,5571.601562 6514.821289,5522.764648 
	C6498.868652,5502.353516 6484.645508,5483.881348 6470.204590,5465.582031 
	C6251.283691,5188.174316 6019.388184,4922.017578 5776.130859,4665.732422 
	C5649.968262,4532.812500 5520.987793,4402.671875 5388.473145,4276.078613 
	C5322.472656,4213.027344 5255.533203,4150.959473 5188.943359,4088.527100 
	C5184.228027,4084.106201 5180.164062,4078.561523 5172.310547,4076.775146 
	C5165.441895,4082.415527 5158.218750,4088.264404 5151.083008,4094.218506 
	C5088.661621,4146.301270 5025.325195,4197.221191 4959.770508,4245.339355 
	C4869.402344,4311.670898 4775.457031,4372.208984 4674.730469,4421.812500 
	C4587.050781,4464.990723 4495.931641,4497.905273 4399.215820,4514.013184 
	C4367.678711,4519.266113 4336.013672,4523.620605 4303.309570,4522.791016 
	C4299.824219,4520.023926 4297.743652,4521.118164 4294.271973,4523.913086 
	C4282.983887,4523.988281 4273.467773,4523.854492 4263.347656,4522.921875 
	C4259.950195,4520.042969 4257.828125,4521.010742 4254.255859,4523.721680 
	C4186.178711,4521.288574 4121.504395,4509.573730 4058.306641,4489.645996 
	C3974.659180,4463.270508 3896.517090,4424.856934 3821.087402,4380.588379 
	C3742.847168,4334.669922 3668.776367,4282.551270 3595.951904,4228.618164 
	C3521.542969,4173.511230 3447.366455,4118.089844 3373.011475,4062.909424 
	C3367.224854,4058.615479 3362.068604,4053.107910 3353.831299,4051.194824 
	C3349.331299,4054.525879 3344.456543,4057.941406 3339.787842,4061.618896 
	C3146.641357,4213.761719 2956.851562,4369.973145 2771.114258,4531.089355 
	C2757.566406,4542.841797 2744.479492,4555.125488 2731.178223,4567.162109 
	C2712.929199,4582.659668 2694.302490,4597.735840 2676.495605,4613.725098 
	C2587.265625,4693.849609 2497.723145,4773.637207 2409.264160,4854.606445 
	C2195.410400,5050.354980 1987.849365,5252.638184 1785.967041,5460.684082 
	C1688.537354,5561.087891 1593.200439,5663.523438 1496.910278,5765.033203 
	C1492.326050,5769.866699 1487.781738,5774.743164 1483.055420,5779.435059 
	C1474.733521,5787.697266 1464.391235,5792.241699 1453.089478,5794.384766 
	C1439.738525,5796.916504 1427.706665,5793.653320 1418.652344,5783.256348 
	C1409.257812,5772.468750 1410.343384,5760.002930 1414.781372,5747.454102 
	C1417.976807,5738.418457 1424.216187,5731.499023 1430.621826,5724.659668 
	C1474.802734,5677.491211 1518.802368,5630.151367 1563.121338,5583.112793 
	C1727.641968,5408.495117 1896.705444,5238.354004 2069.077393,5071.509277 
	C2208.401123,4936.653320 2350.131592,4804.352051 2494.753174,4675.178223 
	C2553.382812,4622.811035 2612.498535,4570.988281 2673.208008,4517.248535 
	C2682.149170,4509.561035 2689.351807,4503.630859 2696.390137,4497.510742 
	C2828.156494,4382.926758 2961.652100,4270.394043 3097.205566,4160.317383 
	C3156.695312,4112.008301 3216.741943,4064.385742 3276.430908,4016.321533 
	C3281.388184,4012.329590 3288.304688,4009.810059 3289.542480,4001.561035 
	C3284.410156,3997.545898 3279.243408,3993.378418 3273.948242,3989.380371 
	C3175.564697,3915.098633 3076.754883,3841.374023 2978.849365,3766.467773 
	C2716.798584,3565.976807 2459.588867,3359.511475 2211.508789,3141.843018 
	C2017.041748,2971.216064 1828.861450,2793.967041 1648.914673,2608.036621 
	C1646.183105,2605.214355 1642.958984,2602.868896 1639.964722,2600.300781 
	C1636.152344,2595.772705 1632.591064,2591.002686 1628.490723,2586.752197 
	C1525.478760,2479.968994 1425.669800,2370.275879 1329.200439,2257.545654 
	C1327.470581,2255.524170 1325.654175,2253.569580 1324.024902,2251.470215 
	C1316.777466,2242.131836 1316.660889,2236.344238 1325.225464,2229.123779 
	C1343.739380,2213.515137 1365.649658,2206.585449 1389.647217,2206.208496 
	C1398.219727,2206.073730 1404.425781,2210.793701 1409.896729,2217.236572 
	C1430.129761,2241.064941 1450.298584,2264.964111 1471.136108,2288.259766 
	C1515.475952,2337.829834 1560.219482,2387.038818 1605.985962,2437.125977 
	C1612.753906,2444.440918 1618.075195,2451.265869 1623.950439,2457.574707 
	C1765.287354,2609.345215 1912.272583,2755.455078 2064.008057,2896.814209 
	C2312.416748,3128.236084 2572.368896,3346.089355 2838.706055,3556.452393 
	C3084.030762,3750.218994 3334.410156,3937.307617 3586.321045,4122.371582 
	C3646.472412,4166.561523 3706.522217,4210.900391 3767.212158,4254.341797 
	C3832.277588,4300.915039 3899.448486,4344.254395 3970.511719,4381.291992 
	C4036.302002,4415.581543 4104.534180,4443.525879 4176.681152,4461.551758 
	C4238.596191,4477.020996 4301.376465,4483.127930 4364.990723,4478.737305 
	C4437.472656,4473.734863 4506.569824,4454.583984 4573.367188,4426.563965 
	C4635.597656,4400.460449 4694.542480,4368.157715 4751.400879,4331.957520 
	C4853.855469,4266.727051 4951.255859,4194.519531 5045.356445,4117.842773 
	C5229.553223,3967.751953 5402.813477,3805.802002 5567.537109,3634.660645 
	C5715.989746,3480.425293 5857.188965,3319.729248 5994.000488,3155.132324 
	C6154.223145,2962.371338 6308.107910,2764.601318 6460.229492,2565.437744 
	C6508.773926,2501.881348 6557.635742,2438.555420 6605.283691,2374.331543 
	C6624.399414,2348.565186 6649.619629,2339.720703 6679.765137,2339.657471 
	C6683.068848,2339.650391 6686.451660,2340.032715 6689.663574,2340.797607 
	C6699.727539,2343.195557 6702.226074,2349.748779 6696.523926,2358.526367 
	C6694.712402,2361.314941 6692.616699,2363.921875 6690.602051,2366.574707 
	C6523.725098,2586.314941 6356.658203,2805.909668 6183.094727,3020.458008 
	C6030.035156,3209.660400 5872.113281,3394.657227 5705.165527,3571.825684 
	C5572.978516,3712.105225 5435.554199,3846.999268 5290.933105,3974.485840 
	C5272.934082,3990.352539 5254.744141,4006.002197 5236.635742,4021.743896 
	C5229.622559,4027.840576 5222.588379,4033.913086 5214.780273,4040.675049 
	C5218.553711,4047.908203 5225.102539,4051.481445 5230.209473,4056.146729 
	C5323.226562,4141.121094 5414.941406,4227.471680 5505.392090,4315.175293 
	C5690.174805,4494.345215 5868.652344,4679.601074 6041.504395,4870.284180 
	C6226.452148,5074.309570 6404.130371,5284.492188 6574.581055,5500.780273 
	C6578.289062,5505.486328 6582.056152,5510.145020 6586.928223,5515.616211 
z"/>
<path fill="#FFFFFE" opacity="1.000000" stroke="none" 
	d="
M6716.089844,3392.001465 
	C6714.585938,3354.152344 6714.455078,3318.140625 6711.151855,3282.422607 
	C6709.061523,3259.821533 6709.884277,3237.138916 6707.342773,3214.752441 
	C6704.704590,3191.515869 6705.825195,3168.135498 6703.119141,3145.105713 
	C6700.934082,3126.507812 6700.914062,3107.952393 6699.570312,3089.406006 
	C6697.845215,3065.588379 6695.106445,3041.844238 6692.808105,3018.068115 
	C6692.679688,3016.742432 6692.563965,3015.414795 6692.485840,3014.085449 
	C6690.915039,2987.542480 6689.729980,2960.969727 6687.668945,2934.465088 
	C6685.921387,2911.983887 6683.163086,2889.581299 6680.851562,2867.143799 
	C6680.714844,2865.818848 6680.541016,2864.496582 6680.447266,2863.168213 
	C6678.895508,2841.296143 6677.697754,2819.391357 6675.704590,2797.559570 
	C6673.956543,2778.410889 6671.309082,2759.344727 6669.079590,2740.239746 
	C6668.770996,2737.594971 6668.509766,2734.941406 6668.342285,2732.284424 
	C6666.756836,2707.096191 6664.301270,2682.014404 6660.743652,2657.007812 
	C6658.878418,2643.898193 6659.706543,2630.563965 6656.980957,2617.345459 
	C6654.944824,2607.469727 6661.268555,2599.422119 6669.338379,2593.840088 
	C6685.067871,2582.960205 6703.013672,2578.174072 6721.797363,2576.631836 
	C6726.228516,2576.268066 6730.854004,2578.283691 6735.391113,2579.198242 
	C6743.736328,2580.880127 6747.469238,2585.846680 6748.210449,2594.474854 
	C6750.595703,2622.247559 6753.387695,2649.989502 6756.371582,2677.705811 
	C6758.430664,2696.831055 6761.321777,2715.866943 6763.358398,2734.994385 
	C6764.763184,2748.191650 6764.905273,2761.423340 6766.895020,2774.686035 
	C6770.041504,2795.653809 6770.231445,2817.051758 6772.076172,2838.232422 
	C6774.090820,2861.364746 6776.562500,2884.457520 6778.846680,2907.566406 
	C6778.978027,2908.891602 6779.288086,2910.201416 6779.380371,2911.527588 
	C6780.859863,2932.738525 6782.362793,2953.947998 6783.770996,2975.163574 
	C6785.881348,3006.966797 6786.927246,3038.852783 6791.268066,3070.480713 
	C6791.358398,3071.139404 6791.403809,3071.806152 6791.439941,3072.470947 
	C6792.921387,3099.686523 6794.494141,3126.897949 6795.854980,3154.119629 
	C6797.482422,3186.664551 6797.464844,3219.377197 6800.969238,3251.712646 
	C6803.278320,3273.010498 6802.455566,3294.266357 6804.340820,3315.423340 
	C6807.534180,3351.272705 6806.249023,3387.320801 6809.093750,3423.054688 
	C6811.054688,3447.682129 6811.117676,3472.216553 6812.000000,3496.790771 
	C6813.384277,3535.349121 6814.970703,3573.906250 6815.727539,3612.478516 
	C6816.472656,3650.463135 6814.175293,3688.624023 6816.993652,3726.425537 
	C6821.662109,3789.028320 6818.957031,3851.591309 6819.639160,3914.158936 
	C6820.314941,3976.143066 6821.963379,4038.260986 6818.844238,4100.101562 
	C6815.820801,4160.049316 6818.906250,4220.041992 6815.042480,4279.793457 
	C6812.288086,4322.399902 6814.377441,4365.077637 6810.954102,4407.468262 
	C6808.535156,4437.416504 6809.955078,4467.412598 6807.176270,4497.153320 
	C6804.568359,4525.065918 6805.709473,4553.086426 6803.037109,4580.813477 
	C6800.858398,4603.411621 6801.768066,4626.109375 6799.180176,4648.479492 
	C6796.567383,4671.064453 6797.720215,4693.765625 6795.144043,4716.137207 
	C6792.772949,4736.724609 6793.653320,4757.426758 6791.112305,4777.791504 
	C6788.793457,4796.377441 6788.770020,4814.939453 6787.413086,4833.486328 
	C6785.718750,4856.637695 6782.872559,4879.704590 6780.536133,4902.809570 
	C6780.401855,4904.133789 6780.387695,4905.470703 6780.304688,4906.800781 
	C6778.769043,4931.345215 6777.613281,4955.920898 6775.580566,4980.424316 
	C6773.770996,5002.234375 6770.985840,5023.963867 6768.650391,5045.730469 
	C6768.437500,5047.715820 6768.371094,5049.717773 6768.230469,5051.710938 
	C6766.687012,5073.583008 6765.519531,5095.490234 6763.482422,5117.316406 
	C6761.756348,5135.800293 6758.859863,5154.171387 6756.786621,5172.627441 
	C6755.007812,5188.464844 6753.762207,5204.361328 6752.099609,5220.212891 
	C6749.677246,5243.308594 6747.013184,5266.379395 6744.604492,5289.476562 
	C6742.882324,5305.989746 6741.454102,5322.533691 6739.813477,5339.055664 
	C6738.435547,5352.927734 6737.084473,5366.805176 6735.443359,5380.646973 
	C6734.461426,5388.934082 6730.505371,5395.307129 6723.489258,5400.446777 
	C6704.007324,5414.717285 6682.060059,5417.739258 6658.958984,5415.493652 
	C6650.057129,5414.628418 6644.657715,5408.211914 6644.089844,5399.471191 
	C6643.832031,5395.494629 6643.922363,5391.453125 6644.312500,5387.485840 
	C6645.676758,5373.611816 6647.196289,5359.751953 6648.738770,5345.895996 
	C6651.234375,5323.476074 6653.664062,5301.046875 6656.369141,5278.651367 
	C6658.437500,5261.533691 6660.985840,5244.473633 6663.136719,5227.365234 
	C6664.875977,5213.533203 6664.647461,5199.611328 6666.976562,5185.690918 
	C6670.253906,5166.107422 6670.368164,5146.009277 6672.221191,5126.167480 
	C6674.256836,5104.370117 6676.728516,5082.613281 6679.019531,5060.840332 
	C6679.158691,5059.516113 6679.462402,5058.206543 6679.555176,5056.880859 
	C6681.128906,5034.341309 6682.410645,5011.776367 6684.314941,4989.264648 
	C6686.271973,4966.127441 6688.830566,4943.041992 6691.128906,4919.933594 
	C6691.261230,4918.607422 6691.478027,4917.288086 6691.556641,4915.959473 
	C6693.124512,4889.415039 6693.561523,4862.743652 6696.536621,4836.358887 
	C6699.739746,4807.943848 6698.201660,4779.210938 6703.250000,4750.986328 
	C6703.483887,4749.680664 6703.536133,4748.336426 6703.602539,4747.006836 
	C6705.127441,4716.457520 6706.582031,4685.905273 6708.175781,4655.359375 
	C6709.874023,4622.816895 6710.988770,4590.193359 6713.237305,4557.750000 
	C6715.081543,4531.146484 6714.183594,4504.493164 6716.637695,4478.052246 
	C6720.152344,4440.180176 6717.757324,4402.090820 6721.001465,4364.398926 
	C6725.300293,4314.460938 6721.486328,4264.470215 6724.813477,4214.697754 
	C6730.244141,4133.474609 6727.366211,4052.222656 6728.023926,3970.991943 
	C6728.677246,3890.341797 6729.220215,3809.643555 6727.126465,3729.036133 
	C6725.951660,3683.808350 6724.310059,3638.580811 6723.943359,3593.329346 
	C6723.550293,3544.736572 6718.237305,3496.295654 6719.610352,3447.654785 
	C6715.628418,3429.940674 6716.448730,3411.914551 6716.089844,3392.001465 
z"/>
<path fill="#FFFEFD" opacity="1.000000" stroke="none" 
	d="
M4993.166016,3929.171143 
	C5023.425293,3904.051758 5052.846680,3880.152588 5081.770996,3855.665527 
	C5098.523438,3841.482422 5114.420898,3826.292725 5130.799805,3811.664795 
	C5151.633789,3793.057617 5172.905762,3774.926025 5193.357910,3755.910889 
	C5212.876465,3737.764160 5230.826172,3717.884277 5250.812012,3700.296143 
	C5288.885254,3666.789551 5323.637695,3629.962402 5359.336914,3594.094238 
	C5388.455566,3564.838379 5416.764648,3534.760010 5444.934082,3504.581299 
	C5472.174316,3475.397461 5499.021973,3445.836670 5525.596191,3416.044189 
	C5554.374512,3383.780273 5583.109863,3351.455322 5611.009277,3318.435059 
	C5647.484375,3275.266357 5683.240723,3231.487549 5719.083008,3187.788330 
	C5749.871094,3150.251221 5780.690918,3112.730713 5810.857422,3074.695801 
	C5839.371582,3038.744141 5867.265137,3002.293457 5895.048828,2965.770752 
	C5930.485352,2919.188232 5965.691895,2872.428711 6000.703125,2825.525879 
	C6028.554688,2788.213867 6056.132812,2750.694824 6083.534668,2713.051270 
	C6132.468262,2645.828125 6181.306152,2578.533936 6229.934082,2511.089844 
	C6259.505371,2470.077148 6289.717285,2429.454590 6317.419434,2387.199463 
	C6329.872559,2368.204590 6344.720703,2365.705566 6367.060547,2365.239014 
	C6376.260254,2365.046631 6385.514160,2367.157959 6394.731934,2368.318848 
	C6397.356934,2368.649658 6400.011230,2369.090820 6402.529785,2369.874512 
	C6416.877930,2374.341553 6419.557617,2380.756348 6410.987305,2393.286377 
	C6394.837891,2416.896973 6378.175293,2440.160645 6361.502930,2463.408447 
	C6338.628906,2495.302979 6315.571777,2527.066406 6292.548340,2558.853516 
	C6254.700684,2611.108643 6216.941406,2663.428955 6178.911133,2715.550781 
	C6145.194824,2761.760498 6111.393066,2807.912109 6077.200684,2853.770020 
	C6041.818848,2901.222656 6006.318848,2948.597656 5970.144531,2995.446533 
	C5927.471680,3050.712158 5884.343262,3105.635010 5840.787109,3160.207275 
	C5813.826660,3193.986816 5785.702148,3226.837158 5758.100098,3260.105469 
	C5740.269043,3281.597412 5722.600586,3303.227051 5704.551758,3324.534424 
	C5692.511230,3338.747314 5679.846680,3352.429443 5667.610840,3366.478760 
	C5653.637207,3382.522705 5639.829590,3398.709961 5625.948242,3414.833496 
	C5624.645020,3416.347900 5623.371094,3417.890137 5622.013672,3419.355225 
	C5601.201660,3441.817383 5580.324219,3464.219727 5559.571289,3486.736572 
	C5533.869629,3514.622070 5508.474609,3542.793945 5482.544434,3570.465820 
	C5467.511230,3586.509033 5451.757812,3601.882080 5436.205566,3617.433594 
	C5407.928223,3645.709717 5379.974121,3674.327637 5351.108398,3701.992676 
	C5323.254883,3728.688232 5294.446777,3754.389648 5266.007812,3780.472656 
	C5249.823730,3795.316406 5233.760254,3810.303955 5217.247070,3824.775391 
	C5188.741699,3849.756348 5160.267578,3874.793701 5131.158203,3899.060303 
	C5093.873535,3930.142090 5056.369629,3960.989746 5018.217773,3990.994141 
	C4985.284668,4016.894287 4951.833008,4042.205811 4917.669922,4066.452881 
	C4873.726562,4097.641602 4829.244629,4128.115234 4784.253906,4157.772949 
	C4738.701660,4187.800293 4692.459473,4216.771484 4644.985840,4243.771484 
	C4602.735352,4267.800781 4560.611328,4292.014648 4517.049316,4313.627441 
	C4484.860840,4329.597168 4452.757324,4345.738770 4420.545898,4361.663574 
	C4401.466309,4371.096191 4381.621582,4374.747559 4360.589355,4369.002930 
	C4352.289062,4366.735840 4343.708984,4365.418945 4335.541992,4362.784180 
	C4333.009766,4361.966309 4329.851074,4358.244629 4329.832520,4355.830566 
	C4329.813965,4353.388672 4332.910156,4350.306641 4335.395508,4348.606934 
	C4339.207031,4345.999512 4343.672852,4344.355957 4347.843750,4342.268066 
	C4384.186523,4324.077148 4420.964844,4306.697754 4456.755371,4287.478027 
	C4503.069336,4262.606445 4549.125977,4237.159668 4594.326172,4210.331543 
	C4653.273438,4175.344727 4710.946777,4138.241699 4767.230469,4099.069336 
	C4819.097168,4062.971680 4870.780762,4026.611328 4920.048340,3986.948486 
	C4943.874023,3967.767822 4968.083496,3949.064209 4993.166016,3929.171143 
z"/>
<path fill="#FFFDF8" opacity="1.000000" stroke="none" 
	d="
M6399.170898,5112.880859 
	C6368.947266,5072.257812 6340.042480,5032.429199 6310.236816,4993.286621 
	C6288.090332,4964.202148 6264.866699,4935.933594 6241.955078,4907.436523 
	C6220.714844,4881.017090 6199.330566,4854.711914 6177.848633,4828.488281 
	C6169.000488,4817.687500 6159.860352,4807.117676 6150.629883,4796.638672 
	C6128.208496,4771.182617 6105.423340,4746.042969 6083.215820,4720.402832 
	C6054.887207,4687.694824 6024.995117,4656.440430 5995.764160,4624.568848 
	C5928.607910,4551.344727 5856.988770,4482.589355 5786.330078,4412.882812 
	C5753.188965,4380.188477 5718.320801,4349.216797 5683.705566,4318.052734 
	C5652.076660,4289.578613 5619.918945,4261.681641 5587.634766,4233.948730 
	C5568.480469,4217.494629 5548.391113,4202.132324 5529.165039,4185.758789 
	C5511.877930,4171.036621 5495.649414,4155.206055 5485.524902,4134.333984 
	C5483.792969,4130.763184 5482.194824,4127.049805 5481.222168,4123.227051 
	C5480.830078,4121.686523 5481.795410,4119.111328 5483.035156,4118.038086 
	C5484.287109,4116.954590 5487.067871,4116.275391 5488.441406,4116.940918 
	C5493.184570,4119.239746 5498.103027,4121.617676 5502.070801,4125.002930 
	C5533.432617,4151.764160 5564.605469,4178.747559 5595.806152,4205.697266 
	C5622.977051,4229.166504 5650.108887,4252.680664 5677.254883,4276.177734 
	C5677.758301,4276.613770 5678.233887,4277.082031 5678.722168,4277.535156 
	C5699.681152,4297.023926 5720.579590,4316.577637 5741.609375,4335.989746 
	C5812.130859,4401.087891 5879.515137,4469.382324 5946.836914,4537.729004 
	C5971.125000,4562.386230 5994.726562,4587.734375 6018.195801,4613.178711 
	C6041.645508,4638.601074 6064.770508,4664.332520 6087.608398,4690.306641 
	C6110.432617,4716.266113 6132.733398,4742.687500 6155.249023,4768.918457 
	C6173.007324,4789.606445 6190.942383,4810.147461 6208.437500,4831.055664 
	C6227.634766,4853.999023 6246.682617,4877.078613 6265.314941,4900.480957 
	C6288.502441,4929.603027 6311.622559,4958.796875 6334.011719,4988.532227 
	C6371.200195,5037.924316 6407.840820,5087.730469 6444.563477,5137.471680 
	C6450.467285,5145.469238 6455.782715,5153.924805 6460.974609,5162.410156 
	C6462.640137,5165.132812 6463.657227,5168.606445 6463.795898,5171.788086 
	C6463.894531,5174.051270 6462.618164,5177.406738 6460.872070,5178.433594 
	C6459.040039,5179.510254 6455.572266,5179.096191 6453.440918,5178.058105 
	C6450.537598,5176.643555 6447.880859,5174.321777 6445.716797,5171.862305 
	C6437.381348,5162.392578 6428.984375,5152.949219 6421.184082,5143.043945 
	C6413.783691,5133.646484 6407.101562,5123.684082 6399.170898,5112.880859 
z"/>
<path fill="#FDE092" opacity="1.000000" stroke="none" 
	d="
M2731.869141,4568.392090 
	C2744.479492,4555.125488 2757.566406,4542.841797 2771.114258,4531.089355 
	C2956.851562,4369.973145 3146.641357,4213.761719 3339.787842,4061.618896 
	C3344.456543,4057.941406 3349.331299,4054.525879 3353.831299,4051.194824 
	C3362.068604,4053.107910 3367.224854,4058.615479 3373.011475,4062.909424 
	C3447.366455,4118.089844 3521.542969,4173.511230 3595.951904,4228.618164 
	C3668.776367,4282.551270 3742.847168,4334.669922 3821.087402,4380.588379 
	C3896.517090,4424.856934 3974.659180,4463.270508 4058.306641,4489.645996 
	C4121.504395,4509.573730 4186.178711,4521.288574 4254.941406,4524.247070 
	C4259.605469,4524.336914 4261.778809,4524.028809 4263.952148,4523.720703 
	C4273.467773,4523.854492 4282.983887,4523.988281 4294.976074,4524.411621 
	C4299.610840,4524.326660 4301.769043,4523.951660 4303.927246,4523.577148 
	C4336.013672,4523.620605 4367.678711,4519.266113 4399.215820,4514.013184 
	C4495.931641,4497.905273 4587.050781,4464.990723 4674.730469,4421.812500 
	C4775.457031,4372.208984 4869.402344,4311.670898 4959.770508,4245.339355 
	C5025.325195,4197.221191 5088.661621,4146.301270 5151.083008,4094.218506 
	C5158.218750,4088.264404 5165.441895,4082.415527 5172.310547,4076.775146 
	C5180.164062,4078.561523 5184.228027,4084.106201 5188.943359,4088.527100 
	C5255.533203,4150.959473 5322.472656,4213.027344 5388.473145,4276.078613 
	C5520.987793,4402.671875 5649.968262,4532.812500 5776.130859,4665.732422 
	C6019.388184,4922.017578 6251.283691,5188.174316 6470.204590,5465.582031 
	C6484.645508,5483.881348 6498.868652,5502.353516 6513.774902,5522.041016 
	C6505.698242,5523.562012 6497.039062,5523.757324 6488.381836,5524.020020 
	C6475.791992,5524.401855 6463.345215,5524.509277 6450.711914,5526.875977 
	C6437.801270,5529.294922 6424.160645,5527.766602 6410.842285,5528.079102 
	C6398.913086,5528.358887 6386.959961,5527.294922 6375.179688,5531.051270 
	C6370.292480,5532.610352 6364.609375,5531.812988 6359.286621,5531.842285 
	C6333.295410,5531.984863 6307.303223,5531.930664 6281.313477,5532.181641 
	C6266.728027,5532.322266 6252.085449,5531.013672 6237.667480,5535.267090 
	C6232.736816,5536.722168 6227.075684,5535.801758 6221.748535,5535.802734 
	C6101.789062,5535.821777 5981.829102,5535.862305 5861.869629,5535.714844 
	C5853.969238,5535.705078 5846.077148,5534.158203 5838.169922,5533.451172 
	C5832.222168,5532.919434 5826.259277,5532.259277 5820.299316,5532.222656 
	C5786.978516,5532.017090 5753.655273,5532.063965 5720.334473,5531.850586 
	C5707.738281,5531.770508 5695.088867,5532.834961 5682.683105,5528.841797 
	C5678.415039,5527.467285 5673.431152,5528.202637 5668.772949,5528.169434 
	C5650.779297,5528.041016 5632.784668,5528.092285 5614.792480,5527.875977 
	C5602.860352,5527.731934 5591.008789,5528.201660 5579.113770,5525.030762 
	C5571.604980,5523.029297 5563.223145,5524.379883 5555.239746,5524.061523 
	C5534.032227,5523.218262 5512.721680,5525.680664 5491.621094,5520.566406 
	C5484.048340,5518.730957 5475.693359,5520.219727 5467.700684,5519.995117 
	C5453.784668,5519.604980 5439.961914,5520.083496 5426.038574,5516.948242 
	C5415.854004,5514.654297 5404.815918,5516.197754 5394.161133,5515.932129 
	C5384.220215,5515.683594 5374.264160,5516.542480 5364.487305,5513.098145 
	C5360.267090,5511.611816 5355.263672,5512.263184 5350.610840,5512.107910 
	C5335.364746,5511.601562 5320.045410,5512.988770 5304.998535,5508.574707 
	C5300.062500,5507.125977 5294.400879,5508.187012 5289.073730,5508.026367 
	C5277.807617,5507.687012 5266.470703,5508.787598 5255.436523,5504.885742 
	C5251.825684,5503.609863 5247.522949,5504.202637 5243.532715,5504.102539 
	C5230.926270,5503.785645 5218.296875,5504.549316 5205.916992,5500.682617 
	C5201.628418,5499.343262 5196.657715,5500.174805 5191.997559,5500.044434 
	C5182.709473,5499.783203 5173.298340,5500.717285 5164.393555,5496.914551 
	C5163.210449,5496.410156 5161.778320,5496.422852 5160.452637,5496.330566 
	C5139.279785,5494.851562 5118.075684,5493.728516 5096.939941,5491.837402 
	C5077.170898,5490.067383 5057.473633,5487.495117 5037.748047,5485.249512 
	C5036.432617,5485.100586 5035.154785,5484.583008 5033.840332,5484.477051 
	C5014.673828,5482.937500 4995.470215,5481.767578 4976.343262,5479.836914 
	C4957.919434,5477.977539 4939.573730,5475.336914 4921.192383,5473.052246 
	C4908.043945,5471.417969 4894.932129,5469.225098 4881.732910,5468.358887 
	C4870.449707,5467.618164 4859.357910,5466.467773 4848.164551,5464.608887 
	C4831.867188,5461.903320 4815.170898,5461.705078 4798.720215,5459.789062 
	C4783.615234,5458.030273 4768.624023,5455.311523 4753.556152,5453.204102 
	C4740.439453,5451.369141 4727.266602,5449.936523 4714.152832,5448.080566 
	C4687.948242,5444.371094 4661.782227,5440.387207 4635.571777,5436.719238 
	C4613.274414,5433.598633 4590.893066,5431.056152 4568.630859,5427.710449 
	C4549.649902,5424.858398 4530.791016,5421.200684 4511.870117,5417.946289 
	C4484.466309,5413.232910 4457.017578,5408.773926 4429.660156,5403.808105 
	C4406.848633,5399.667480 4384.099121,5395.152832 4361.395508,5390.451172 
	C4318.577637,5381.582031 4275.617188,5373.283691 4233.077148,5363.223633 
	C4184.658691,5351.773926 4136.590820,5338.821777 4088.457031,5326.194824 
	C4064.067627,5319.795898 4039.729980,5313.126953 4015.612305,5305.781250 
	C3969.857178,5291.845215 3924.046387,5278.026367 3878.681885,5262.891113 
	C3817.525391,5242.486816 3757.211426,5219.708008 3697.673340,5194.931152 
	C3645.482666,5173.211914 3593.432129,5151.198242 3542.931885,5125.672363 
	C3524.537598,5116.375000 3505.196533,5108.911621 3487.007324,5099.255371 
	C3443.536865,5076.180664 3400.297852,5052.650879 3357.340088,5028.635254 
	C3322.528809,5009.173828 3287.799072,4989.487793 3253.881836,4968.528320 
	C3216.002441,4945.121094 3178.949951,4920.361816 3141.771729,4895.835449 
	C3082.405273,4856.671875 3024.923096,4814.854980 2968.873535,4771.097656 
	C2941.150879,4749.455078 2914.026611,4727.045410 2886.664551,4704.942383 
	C2867.051270,4689.098633 2847.379883,4673.323730 2827.953369,4657.253418 
	C2817.212402,4648.368164 2806.281250,4639.564453 2796.561035,4629.623535 
	C2776.083496,4608.680664 2751.377686,4592.291504 2731.869141,4568.392090 
z"/>
<path fill="#FDE092" opacity="1.000000" stroke="none" 
	d="
M1640.026123,2601.940430 
	C1642.958984,2602.868896 1646.183105,2605.214355 1648.914673,2608.036621 
	C1828.861450,2793.967041 2017.041748,2971.216064 2211.508789,3141.843018 
	C2459.588867,3359.511475 2716.798584,3565.976807 2978.849365,3766.467773 
	C3076.754883,3841.374023 3175.564697,3915.098633 3273.948242,3989.380371 
	C3279.243408,3993.378418 3284.410156,3997.545898 3289.542480,4001.561035 
	C3288.304688,4009.810059 3281.388184,4012.329590 3276.430908,4016.321533 
	C3216.741943,4064.385742 3156.695312,4112.008301 3097.205566,4160.317383 
	C2961.652100,4270.394043 2828.156494,4382.926758 2696.390137,4497.510742 
	C2689.351807,4503.630859 2682.149170,4509.561035 2673.777344,4516.023926 
	C2669.621094,4512.869141 2666.967773,4509.018555 2663.751465,4505.717285 
	C2653.989502,4495.696777 2643.847900,4486.043945 2634.144531,4475.968262 
	C2602.302246,4442.905762 2570.259033,4410.026855 2538.939697,4376.474121 
	C2517.651611,4353.667969 2496.886475,4330.319824 2476.883545,4306.381348 
	C2442.851562,4265.653809 2409.089600,4224.708008 2376.213379,4183.006836 
	C2340.031250,4137.112305 2304.712891,4090.634033 2271.314209,4042.693848 
	C2245.108887,4005.078857 2218.180420,3967.925049 2193.214355,3929.499756 
	C2163.899170,3884.381836 2135.934570,3838.365967 2108.177246,3792.261963 
	C2084.188232,3752.417725 2060.362793,3712.418945 2038.187134,3671.553955 
	C2012.162842,3623.597168 1987.915771,3574.673096 1963.066040,3526.082764 
	C1951.543823,3503.552246 1939.868286,3481.073242 1929.245117,3458.116211 
	C1913.339844,3423.743652 1898.252563,3388.991455 1882.910889,3354.359375 
	C1872.681885,3331.268799 1862.253906,3308.256592 1852.566772,3284.938477 
	C1840.080444,3254.882324 1827.716797,3224.754883 1816.256104,3194.298340 
	C1799.646729,3150.158447 1783.788574,3105.734131 1767.816162,3061.356934 
	C1759.266113,3037.601074 1750.469604,3013.901123 1742.970581,2989.806641 
	C1725.022827,2932.142334 1705.667847,2874.901855 1691.235718,2816.166748 
	C1679.524536,2768.505859 1666.538940,2721.158691 1654.791992,2673.506348 
	C1649.094360,2650.394043 1644.940308,2626.900879 1640.026123,2601.940430 
z"/>
<path fill="#845030" opacity="1.000000" stroke="none" 
	d="
M4303.309570,4522.790527 
	C4301.769043,4523.951660 4299.610840,4524.326660 4296.748535,4524.203125 
	C4297.743652,4521.118164 4299.824219,4520.023926 4303.309570,4522.790527 
z"/>
<path fill="#845030" opacity="1.000000" stroke="none" 
	d="
M4263.347656,4522.921875 
	C4261.778809,4524.028809 4259.605469,4524.336914 4256.747070,4524.119141 
	C4257.828125,4521.010742 4259.950195,4520.042969 4263.347656,4522.921875 
z"/>
</svg>